<svg width="1387" height="325" viewBox="0 0 1387 325" fill="none" xmlns="http://www.w3.org/2000/svg">
<path d="M251 237L244.979 246.853L256.523 247.141L251 237ZM0.522588 237.879C1.93943 238.648 3.38026 239.423 4.84384 240.203L5.78379 238.437C4.32512 237.661 2.88925 236.888 1.47741 236.121L0.522588 237.879ZM13.6491 244.799C16.5386 246.279 19.4992 247.767 22.5229 249.257L23.4072 247.463C20.3925 245.977 17.441 244.494 14.5606 243.019L13.6491 244.799ZM31.4609 253.581C34.4141 254.983 37.4164 256.381 40.4613 257.772L41.2923 255.953C38.2564 254.566 35.263 253.172 32.3185 251.774L31.4609 253.581ZM49.5232 261.831C52.5325 263.152 55.5754 264.462 58.6459 265.754L59.422 263.911C56.361 262.622 53.3274 261.317 50.3271 260L49.5232 261.831ZM67.8289 269.536C70.8906 270.769 73.9733 271.981 77.0714 273.169L77.7875 271.302C74.7 270.118 71.6275 268.909 68.5758 267.681L67.8289 269.536ZM86.3732 276.643C89.4855 277.774 92.6076 278.877 95.734 279.947L96.3816 278.055C93.2675 276.989 90.1572 275.891 87.0563 274.764L86.3732 276.643ZM105.162 283.068C108.331 284.08 111.499 285.055 114.66 285.988L115.226 284.07C112.08 283.141 108.927 282.171 105.771 281.163L105.162 283.068ZM124.228 288.684C127.456 289.55 130.671 290.367 133.866 291.129L134.33 289.184C131.154 288.426 127.957 287.614 124.746 286.752L124.228 288.684ZM143.575 293.288C146.865 293.964 150.128 294.576 153.355 295.118L153.686 293.145C150.484 292.608 147.246 292.001 143.977 291.329L143.575 293.288ZM163.204 296.563C166.558 296.981 169.865 297.312 173.114 297.551L173.261 295.557C170.047 295.32 166.774 294.992 163.451 294.578L163.204 296.563ZM183.069 297.989C186.472 298.031 189.797 297.954 193.033 297.75L192.907 295.754C189.725 295.955 186.45 296.03 183.094 295.989L183.069 297.989ZM202.973 296.666C206.376 296.124 209.654 295.409 212.789 294.509L212.237 292.586C209.187 293.463 205.989 294.16 202.659 294.691L202.973 296.666ZM222.212 291.025C225.314 289.586 228.223 287.904 230.914 285.962L229.744 284.34C227.163 286.202 224.366 287.821 221.37 289.211L222.212 291.025ZM238.425 279.214C240.634 276.743 242.602 274.003 244.306 270.979L242.564 269.997C240.93 272.897 239.046 275.519 236.934 277.881L238.425 279.214ZM248.365 261.79C249.381 258.764 250.193 255.527 250.79 252.07L248.819 251.73C248.239 255.093 247.45 258.231 246.469 261.153L248.365 261.79Z" fill="white"/>
<path d="M624.192 8.55314L624.192 9.55314L624.192 9.55314L624.192 8.55314ZM668.241 136L679.67 134.352L672.528 125.279L668.241 136ZM449.292 1.70626C450.554 2.97077 451.814 4.18944 453.073 5.36352L454.437 3.90062C453.196 2.74337 451.953 1.54152 450.708 0.293745L449.292 1.70626ZM460.93 12.1322C463.761 14.3751 466.587 16.4044 469.405 18.2348L470.495 16.5574C467.73 14.7623 464.956 12.7698 462.172 10.5645L460.93 12.1322ZM478.429 23.4455C481.633 25.0703 484.825 26.4553 488.006 27.6227L488.695 25.7452C485.589 24.605 482.468 23.2514 479.333 21.6618L478.429 23.4455ZM498 30.6106C501.453 31.4148 504.888 31.9857 508.302 32.3534L508.516 30.3649C505.18 30.0055 501.825 29.4478 498.454 28.6627L498 30.6106ZM518.729 32.8759C522.223 32.8582 525.693 32.6551 529.136 32.3006L528.932 30.3111C525.547 30.6596 522.143 30.8586 518.719 30.8759L518.729 32.8759ZM539.437 30.8063C542.851 30.1764 546.236 29.4269 549.59 28.5924L549.108 26.6516C545.787 27.4778 542.442 28.2181 539.074 28.8395L539.437 30.8063ZM559.597 25.8568C562.928 24.8741 566.227 23.839 569.491 22.7872L568.877 20.8836C565.623 21.9324 562.341 22.9621 559.031 23.9385L559.597 25.8568ZM579.319 19.5693C582.633 18.4788 585.906 17.4092 589.139 16.3981L588.543 14.4892C585.294 15.5051 582.009 16.5787 578.693 17.6694L579.319 19.5693ZM599.016 13.499C602.398 12.5877 605.727 11.7915 609.003 11.1575L608.623 9.19392C605.29 9.83909 601.913 10.6472 598.496 11.5679L599.016 13.499ZM619.113 9.75371C620.823 9.62241 622.516 9.55314 624.192 9.55314V7.55314C622.461 7.55314 620.717 7.62469 618.959 7.75957L619.113 9.75371ZM624.192 9.55314C625.858 9.55314 627.506 9.5819 629.136 9.63876L629.206 7.63997C627.552 7.5823 625.881 7.55314 624.192 7.55314L624.192 9.55314ZM638.919 10.3355C642.258 10.6986 645.507 11.185 648.66 11.7878L649.035 9.82337C645.828 9.21025 642.526 8.71602 639.135 8.34718L638.919 10.3355ZM658.194 14.0434C661.423 14.9623 664.528 16.0127 667.5 17.1854L668.234 15.325C665.199 14.1274 662.032 13.0561 658.741 12.1198L658.194 14.0434ZM676.386 21.2623C679.345 22.8282 682.131 24.5315 684.73 26.3599L685.881 24.724C683.21 22.8452 680.352 21.0982 677.321 19.4945L676.386 21.2623ZM692.296 32.5246C694.708 34.8066 696.881 37.2239 698.8 39.7607L700.395 38.5541C698.406 35.9255 696.159 33.4263 693.671 31.0719L692.296 32.5246ZM703.925 48.0009C705.373 50.9095 706.525 53.9338 707.363 57.0562L709.295 56.5378C708.422 53.2839 707.222 50.1348 705.715 47.1093L703.925 48.0009ZM708.912 66.6141C709.101 69.7717 708.987 73.0068 708.552 76.3045L710.535 76.5659C710.986 73.1446 711.105 69.7819 710.908 66.4944L708.912 66.6141ZM706.446 85.8076C705.519 88.7947 704.331 91.8203 702.871 94.8738L704.676 95.7365C706.175 92.5999 707.399 89.4843 708.356 86.4006L706.446 85.8076ZM698.116 103.403C696.427 106.052 694.53 108.714 692.418 111.383L693.986 112.624C696.138 109.905 698.075 107.187 699.802 104.478L698.116 103.403ZM685.977 118.822C683.817 121.117 681.493 123.412 679 125.702L680.354 127.174C682.88 124.853 685.238 122.524 687.434 120.193L685.977 118.822Z" fill="white"/>
<path d="M1283.4 18.093L1283.98 18.9096L1284.02 18.8837L1284.05 18.8546L1283.4 18.093ZM1374.93 123L1384.14 116.038L1373.5 111.541L1374.93 123ZM1138.96 0.563808C1138.14 2.27042 1137.4 3.92443 1136.75 5.52706L1138.6 6.27739C1139.23 4.71908 1139.95 3.1058 1140.76 1.43619L1138.96 0.563808ZM1133.64 15.7719C1132.88 19.7622 1132.81 23.3574 1133.36 26.5786L1135.33 26.2394C1134.83 23.2938 1134.88 19.943 1135.6 16.1442L1133.64 15.7719ZM1137.9 36.4933C1140.14 39.1792 1143.08 41.3408 1146.55 43.0455L1147.43 41.2508C1144.16 39.6431 1141.46 37.6406 1139.43 35.2102L1137.9 36.4933ZM1156.71 46.5109C1160 47.2526 1163.54 47.7649 1167.28 48.0734L1167.44 46.0802C1163.78 45.778 1160.34 45.2777 1157.15 44.5599L1156.71 46.5109ZM1177.93 48.4284C1181.36 48.3928 1184.89 48.227 1188.5 47.9451L1188.34 45.9512C1184.77 46.2299 1181.29 46.3934 1177.91 46.4285L1177.93 48.4284ZM1199.05 46.8251C1202.5 46.3672 1206 45.8202 1209.49 45.1953L1209.14 43.2265C1205.67 43.8464 1202.21 44.3887 1198.78 44.8424L1199.05 46.8251ZM1219.87 43.1238C1223.33 42.3624 1226.77 41.535 1230.16 40.6526L1229.66 38.717C1226.29 39.5932 1222.87 40.4147 1219.44 41.1706L1219.87 43.1238ZM1240.34 37.803C1243.79 36.7659 1247.17 35.6796 1250.43 34.5566L1249.78 32.6656C1246.54 33.7797 1243.19 34.8579 1239.77 35.8876L1240.34 37.803ZM1260.33 30.8992C1263.79 29.5256 1267.06 28.1197 1270.09 26.701L1269.24 24.8898C1266.25 26.2895 1263.02 27.6796 1259.59 29.0402L1260.33 30.8992ZM1279.51 21.7809C1281.14 20.82 1282.63 19.861 1283.98 18.9096L1282.82 17.2763C1281.53 18.1914 1280.08 19.121 1278.49 20.059L1279.51 21.7809ZM1284.05 18.8546C1285.28 17.8073 1286.55 16.8276 1287.85 15.9145L1286.71 14.2764C1285.35 15.2252 1284.03 16.2432 1282.75 17.3313L1284.05 18.8546ZM1296.2 11.1649C1299.12 9.84059 1302.16 8.79033 1305.27 8.00819L1304.78 6.06861C1301.56 6.87895 1298.41 7.96794 1295.37 9.34279L1296.2 11.1649ZM1314.76 6.46158C1317.95 6.21135 1321.17 6.21825 1324.39 6.47645L1324.55 4.48284C1321.23 4.2164 1317.9 4.20904 1314.61 4.46772L1314.76 6.46158ZM1333.91 7.97441C1337.03 8.70707 1340.1 9.67412 1343.11 10.8698L1343.85 9.01113C1340.75 7.77935 1337.58 6.7828 1334.37 6.0276L1333.91 7.97441ZM1351.8 15.0761C1354.56 16.6741 1357.23 18.4831 1359.77 20.4976L1361.01 18.9309C1358.39 16.8549 1355.64 14.9909 1352.8 13.3445L1351.8 15.0761ZM1366.85 27.0294C1369.02 29.3496 1371.05 31.855 1372.9 34.5408L1374.54 33.4063C1372.64 30.6378 1370.55 28.055 1368.31 25.6632L1366.85 27.0294ZM1377.77 42.8685C1379.15 45.6926 1380.36 48.6701 1381.38 51.7973L1383.28 51.1797C1382.24 47.9626 1380.99 44.8973 1379.56 41.988L1377.77 42.8685ZM1383.74 61.1833C1384.29 64.2552 1384.68 67.4465 1384.86 70.7547L1386.86 70.641C1386.67 67.2526 1386.28 63.9798 1385.7 60.8259L1383.74 61.1833ZM1384.87 80.4526C1384.7 83.5776 1384.36 86.7928 1383.85 90.0962L1385.83 90.4011C1386.35 87.0345 1386.69 83.7538 1386.86 80.5611L1384.87 80.4526ZM1381.95 99.5884C1381.21 102.632 1380.32 105.743 1379.28 108.919L1381.18 109.542C1382.24 106.319 1383.14 103.159 1383.9 100.064L1381.95 99.5884Z" fill="white"/>
<path d="M915.448 313.602L914.802 314.366L915.448 313.602ZM1006.91 203L1017.83 206.75L1009.12 214.333L1006.91 203ZM794.455 283.396C795.903 282.455 797.598 281.664 799.497 281.011L800.148 282.903C798.368 283.515 796.828 284.24 795.545 285.073L794.455 283.396ZM810.244 278.87C813.583 278.555 817.22 278.458 821.082 278.57L821.024 280.569C817.23 280.459 813.676 280.555 810.432 280.861L810.244 278.87ZM831.867 279.359C835.325 279.751 838.895 280.28 842.539 280.942L842.182 282.909C838.58 282.255 835.053 281.733 831.641 281.346L831.867 279.359ZM853.096 283.184C856.544 284.022 860.024 284.969 863.503 286.022L862.923 287.936C859.48 286.893 856.036 285.956 852.624 285.128L853.096 283.184ZM873.734 289.435C877.112 290.669 880.462 292.002 883.756 293.434L882.959 295.268C879.703 293.853 876.39 292.534 873.048 291.313L873.734 289.435ZM893.509 298.054C896.748 299.725 899.897 301.497 902.924 303.367L901.873 305.069C898.893 303.228 895.789 301.481 892.592 299.832L893.509 298.054ZM911.863 309.462C913.318 310.56 914.73 311.686 916.093 312.838L914.802 314.366C913.468 313.238 912.085 312.136 910.658 311.058L911.863 309.462ZM916.093 312.838C917.282 313.843 918.531 314.769 919.836 315.618L918.744 317.294C917.372 316.401 916.056 315.425 914.802 314.366L916.093 312.838ZM928.182 319.773C931.055 320.831 934.09 321.621 937.246 322.155L936.913 324.127C933.645 323.574 930.489 322.754 927.491 321.649L928.182 319.773ZM946.637 322.992C949.72 323.039 952.87 322.878 956.054 322.518L956.279 324.506C953.015 324.874 949.779 325.04 946.607 324.992L946.637 322.992ZM965.384 320.921C968.428 320.226 971.473 319.362 974.491 318.338L975.134 320.232C972.052 321.278 968.942 322.16 965.829 322.871L965.384 320.921ZM983.305 314.855C986.177 313.555 988.995 312.11 991.734 310.529L992.733 312.262C989.937 313.875 987.061 315.35 984.131 316.677L983.305 314.855ZM999.686 305.389C1002.26 303.533 1004.72 301.549 1007.05 299.444L1008.39 300.929C1006.01 303.084 1003.49 305.114 1000.86 307.011L999.686 305.389ZM1013.67 292.712C1015.76 290.32 1017.67 287.812 1019.38 285.198L1021.06 286.295C1019.29 288.988 1017.32 291.568 1015.18 294.025L1013.67 292.712ZM1023.95 276.97C1025.25 274.122 1026.33 271.175 1027.15 268.138L1029.08 268.658C1028.23 271.807 1027.12 274.858 1025.77 277.803L1023.95 276.97ZM1028.79 258.895C1029.06 255.845 1029.07 252.719 1028.8 249.526L1030.79 249.355C1031.08 252.664 1031.06 255.906 1030.79 259.071L1028.79 258.895ZM1027.23 240.229C1026.49 237.305 1025.51 234.332 1024.28 231.315L1026.13 230.557C1027.4 233.658 1028.41 236.721 1029.17 239.74L1027.23 240.229ZM1020.17 222.837C1018.69 220.197 1017.02 217.53 1015.13 214.837L1016.76 213.689C1018.69 216.434 1020.4 219.159 1021.92 221.861L1020.17 222.837Z" fill="white"/>
</svg>
