<svg width="960" height="800" viewBox="0 0 960 800" fill="none" xmlns="http://www.w3.org/2000/svg">
<g opacity="0.5" filter="url(#filter0_f_122_1476)">
<circle cx="688.5" cy="680.5" r="206.5" fill="#F04451" fill-opacity="0.5"/>
</g>
<g opacity="0.5" filter="url(#filter1_f_122_1476)">
<circle cx="-0.5" cy="0.5" r="206.5" fill="#F04451" fill-opacity="0.5"/>
</g>
<path d="M489.43 729.54C487.689 721.401 485.431 713.381 482.669 705.527C482.084 703.846 481.471 702.169 480.84 700.517C479.463 696.84 477.891 693.237 476.132 689.725C474.839 689.481 472.298 689 472.298 689L468.279 700.517L466.628 705.247L466.639 705.26C455.969 707.271 446.455 713.22 440 721.917C440.109 721.907 440.227 721.898 440.338 721.888C450.983 721.215 461.668 722.269 471.973 725.008C478.417 726.569 484.524 729.276 490 733C489.871 732.045 489.705 731.051 489.518 730.037C489.488 729.87 489.462 729.708 489.43 729.54Z" fill="#343849"/>
<path d="M883.328 355.208C892.203 355.676 901.098 355.581 909.959 354.925C911.854 354.791 913.752 354.627 915.63 354.438C919.802 354.044 923.95 353.43 928.056 352.6C928.663 351.344 929.857 348.875 929.857 348.875L919.076 341.576L914.648 338.578L914.632 338.586C915.485 327.105 911.957 315.719 904.754 306.705C904.735 306.82 904.711 306.943 904.691 307.06C902.465 318.145 898.446 328.793 892.793 338.588C889.415 344.754 884.946 350.258 879.601 354.836C880.622 354.968 881.694 355.072 882.791 355.161C882.971 355.176 883.146 355.194 883.328 355.208Z" fill="#343849"/>
<path d="M121.517 703.565C109.049 702.928 96.5512 703.086 84.1 704.038C81.4366 704.232 78.7695 704.47 76.1307 704.742C70.268 705.311 64.4386 706.19 58.667 707.375C57.8105 709.154 56.1275 712.649 56.1275 712.649L71.254 722.943L77.4669 727.171L77.4903 727.16C76.2607 743.401 81.1865 759.495 91.2821 772.224C91.309 772.061 91.3427 771.888 91.3712 771.722C94.5293 756.038 100.204 740.967 108.174 727.098C112.936 718.368 119.229 710.571 126.751 704.082C125.318 703.898 123.812 703.753 122.271 703.63C122.018 703.609 121.773 703.584 121.517 703.565Z" fill="#343849"/>
<defs>
<filter id="filter0_f_122_1476" x="-18" y="-26" width="1413" height="1413" filterUnits="userSpaceOnUse" color-interpolation-filters="sRGB">
<feFlood flood-opacity="0" result="BackgroundImageFix"/>
<feBlend mode="normal" in="SourceGraphic" in2="BackgroundImageFix" result="shape"/>
<feGaussianBlur stdDeviation="250" result="effect1_foregroundBlur_122_1476"/>
</filter>
<filter id="filter1_f_122_1476" x="-707" y="-706" width="1413" height="1413" filterUnits="userSpaceOnUse" color-interpolation-filters="sRGB">
<feFlood flood-opacity="0" result="BackgroundImageFix"/>
<feBlend mode="normal" in="SourceGraphic" in2="BackgroundImageFix" result="shape"/>
<feGaussianBlur stdDeviation="250" result="effect1_foregroundBlur_122_1476"/>
</filter>
</defs>
</svg>
