<svg width="1920" height="1000" viewBox="0 0 1920 1000" fill="none" xmlns="http://www.w3.org/2000/svg">
<path d="M1737.82 259.668C1746.28 246.682 1753.92 233.178 1760.67 219.238C1762.13 216.262 1763.54 213.256 1764.9 210.259C1767.95 203.622 1770.66 196.832 1773 189.916C1771.64 187.912 1768.96 183.974 1768.96 183.974L1748.55 193.919L1740.17 198.004L1740.17 198.036C1723.63 186.805 1703.41 182.267 1683.54 185.33C1683.7 185.458 1683.86 185.6 1684.02 185.731C1698.76 198.692 1711.28 213.977 1721.08 230.992C1727.41 241.428 1731.78 252.939 1734 264.969C1735.09 263.543 1736.19 262.016 1737.28 260.439C1737.46 260.179 1737.64 259.931 1737.82 259.668Z" fill="#343849"/>
<path d="M1615.09 939.005C1608.17 936.666 1601.38 933.965 1594.74 930.912C1591.74 929.556 1588.73 928.145 1585.76 926.69C1571.81 919.936 1558.3 912.306 1545.31 903.848C1545.15 903.745 1545.01 903.641 1544.86 903.538C1544.75 903.461 1544.65 903.385 1544.54 903.308C1543.15 902.352 1541.81 901.395 1540.54 900.44L1619.25 850.104C1619.28 850.32 1619.32 850.536 1619.35 850.753M1615.09 939.005C1617.1 937.645 1621.04 934.974 1621.04 934.974M1615.09 939.005L1614.81 938.591L1615.02 938.452M1615.09 939.005L1615.25 938.531C1615.17 938.505 1615.1 938.478 1615.02 938.452M1621.04 934.974L1611.09 914.573L1607.01 906.221L1607 906.211L1606.95 906.691L1606.92 906.688L1606.67 906.665M1621.04 934.974L1620.59 935.193L1620.4 934.803M1621.04 934.974L1620.76 934.56L1620.76 934.56L1620.76 934.56L1620.75 934.562L1620.75 934.568L1620.71 934.59L1620.58 934.677L1620.4 934.803M1606.67 906.665L1606.55 906.413L1606.97 906.21L1606.98 906.201L1606.97 906.191L1607.02 905.693L1607.05 905.696L1607.29 905.719C1618.17 889.462 1622.62 869.707 1619.78 850.254C1619.74 850.303 1619.7 850.35 1619.66 850.392L1619.65 850.403L1619.65 850.403C1619.55 850.52 1619.45 850.636 1619.35 850.753M1606.67 906.665L1610.64 914.792L1611.06 914.585L1610.64 914.792L1620.4 934.803M1606.67 906.665L1606.08 906.608L1606.55 905.91C1617.52 889.787 1622.06 870.134 1619.35 850.753M1619.35 850.753C1606.41 865.374 1591.18 877.796 1574.25 887.542C1564.08 893.703 1552.9 898.024 1541.21 900.312C1542.36 901.172 1543.57 902.034 1544.82 902.897L1544.82 902.898C1544.94 902.98 1545.05 903.058 1545.16 903.134C1545.3 903.233 1545.43 903.33 1545.58 903.432C1558.56 911.878 1572.05 919.496 1585.97 926.24L1585.98 926.241C1588.95 927.694 1591.95 929.103 1594.95 930.457L1594.95 930.458C1601.5 933.469 1608.2 936.137 1615.02 938.452M1615.02 938.452L1618.54 936.066L1620.11 934.999L1620.4 934.803" stroke="white"/>
<path d="M1855.43 691.54C1853.69 683.401 1851.43 675.381 1848.67 667.527C1848.08 665.846 1847.47 664.169 1846.84 662.517C1845.46 658.84 1843.89 655.237 1842.13 651.725C1840.84 651.481 1838.3 651 1838.3 651L1834.28 662.517L1832.63 667.247L1832.64 667.26C1821.97 669.271 1812.45 675.22 1806 683.917C1806.11 683.907 1806.23 683.898 1806.34 683.888C1816.98 683.215 1827.67 684.269 1837.97 687.008C1844.42 688.569 1850.52 691.276 1856 695C1855.87 694.045 1855.7 693.051 1855.52 692.037C1855.49 691.87 1855.46 691.708 1855.43 691.54Z" fill="#343849"/>
<path d="M212.097 683.347C202.83 691.71 194.104 700.656 185.972 710.131C184.226 712.151 182.508 714.204 180.835 716.263C177.091 720.809 173.59 725.551 170.348 730.469C171 732.332 172.282 735.993 172.282 735.993L190.26 732.579L197.644 731.176L197.653 731.152C208.27 743.504 223.138 751.402 239.28 753.265C239.184 753.131 239.085 752.985 238.988 752.847C230.127 739.525 223.48 724.858 219.307 709.418C216.5 699.879 215.435 689.917 216.165 680.012C215.021 680.895 213.854 681.857 212.677 682.859C212.483 683.024 212.292 683.179 212.097 683.347Z" fill="#343849"/>
<path d="M176.574 229.157L176.574 229.159C177.164 236.316 177.289 243.497 176.95 250.659C176.944 250.741 176.938 250.812 176.932 250.887C176.926 250.948 176.921 251.011 176.915 251.084L176.915 251.085C176.877 251.579 176.835 252.065 176.788 252.541C173.082 248.511 168.714 245.114 163.867 242.496C155.91 237.974 147.29 234.704 138.327 232.804C145.514 227.549 154.443 225.031 163.467 225.744L164.329 225.813L164.075 225.278L166.372 221.946L165.971 221.669L166.372 221.946L172.122 213.605L172.894 213.973L174.611 214.793C175.292 218.027 175.803 221.291 176.141 224.573L176.141 224.573L176.141 224.577C176.308 226.094 176.453 227.627 176.574 229.157Z" stroke="white"/>
<g opacity="0.5" filter="url(#filter0_f_302_3936)">
<circle cx="-0.5" cy="0.5" r="206.5" fill="#F04451" fill-opacity="0.5"/>
</g>
<g opacity="0.5" filter="url(#filter1_f_302_3936)">
<ellipse cx="616.5" cy="713" rx="213.5" ry="213" fill="#F04451" fill-opacity="0.5"/>
</g>
<defs>
<filter id="filter0_f_302_3936" x="-707" y="-706" width="1413" height="1413" filterUnits="userSpaceOnUse" color-interpolation-filters="sRGB">
<feFlood flood-opacity="0" result="BackgroundImageFix"/>
<feBlend mode="normal" in="SourceGraphic" in2="BackgroundImageFix" result="shape"/>
<feGaussianBlur stdDeviation="250" result="effect1_foregroundBlur_302_3936"/>
</filter>
<filter id="filter1_f_302_3936" x="-97" y="0" width="1427" height="1426" filterUnits="userSpaceOnUse" color-interpolation-filters="sRGB">
<feFlood flood-opacity="0" result="BackgroundImageFix"/>
<feBlend mode="normal" in="SourceGraphic" in2="BackgroundImageFix" result="shape"/>
<feGaussianBlur stdDeviation="250" result="effect1_foregroundBlur_302_3936"/>
</filter>
</defs>
</svg>
