<svg width="640" height="800" viewBox="0 0 640 800" fill="none" xmlns="http://www.w3.org/2000/svg">
<g opacity="0.5" filter="url(#filter0_f_129_4407)">
<circle cx="643.5" cy="795.5" r="206.5" fill="#F04451" fill-opacity="0.5"/>
</g>
<g opacity="0.5" filter="url(#filter1_f_129_4407)">
<circle cx="-0.5" cy="0.5" r="206.5" fill="#F04451" fill-opacity="0.5"/>
</g>
<path d="M584.395 187.304C582.55 178.61 580.157 170.043 577.229 161.654C576.609 159.858 575.96 158.067 575.291 156.302C573.831 152.374 572.165 148.526 570.3 144.775C568.929 144.514 566.236 144 566.236 144L561.976 156.302L560.226 161.355L560.238 161.369C548.927 163.517 538.842 169.871 532 179.162C532.116 179.15 532.24 179.141 532.359 179.131C543.642 178.412 554.968 179.538 565.892 182.463C572.722 184.13 579.195 187.022 585 191C584.864 189.98 584.687 188.918 584.489 187.835C584.457 187.657 584.429 187.484 584.395 187.304Z" fill="#343849"/>
<path d="M243.328 135.208C252.203 135.676 261.098 135.581 269.959 134.925C271.854 134.791 273.752 134.627 275.63 134.438C279.802 134.044 283.95 133.43 288.056 132.6C288.663 131.344 289.857 128.875 289.857 128.875L279.076 121.576L274.648 118.578L274.632 118.586C275.485 107.105 271.957 95.7187 264.754 86.7054C264.735 86.8202 264.711 86.943 264.691 87.0599C262.465 98.1452 258.446 108.793 252.793 118.588C249.415 124.754 244.946 130.258 239.601 134.836C240.622 134.968 241.694 135.072 242.791 135.161C242.971 135.176 243.146 135.194 243.328 135.208Z" fill="#343849"/>
<path d="M95.5166 530.565C83.0486 529.928 70.5512 530.086 58.1 531.038C55.4366 531.232 52.7695 531.47 50.1307 531.742C44.268 532.311 38.4386 533.19 32.667 534.375C31.8105 536.154 30.1275 539.649 30.1275 539.649L45.254 549.943L51.4669 554.171L51.4903 554.16C50.2607 570.401 55.1865 586.495 65.2821 599.224C65.309 599.061 65.3427 598.888 65.3712 598.722C68.5293 583.038 74.204 567.967 82.1737 554.098C86.9358 545.368 93.2295 537.571 100.751 531.082C99.3176 530.898 97.8122 530.753 96.2715 530.63C96.0178 530.609 95.7726 530.584 95.5166 530.565Z" fill="#343849"/>
<defs>
<filter id="filter0_f_129_4407" x="-63" y="89" width="1413" height="1413" filterUnits="userSpaceOnUse" color-interpolation-filters="sRGB">
<feFlood flood-opacity="0" result="BackgroundImageFix"/>
<feBlend mode="normal" in="SourceGraphic" in2="BackgroundImageFix" result="shape"/>
<feGaussianBlur stdDeviation="250" result="effect1_foregroundBlur_129_4407"/>
</filter>
<filter id="filter1_f_129_4407" x="-707" y="-706" width="1413" height="1413" filterUnits="userSpaceOnUse" color-interpolation-filters="sRGB">
<feFlood flood-opacity="0" result="BackgroundImageFix"/>
<feBlend mode="normal" in="SourceGraphic" in2="BackgroundImageFix" result="shape"/>
<feGaussianBlur stdDeviation="250" result="effect1_foregroundBlur_129_4407"/>
</filter>
</defs>
</svg>
