<svg width="960" height="800" viewBox="0 0 960 800" fill="none" xmlns="http://www.w3.org/2000/svg">
<g opacity="0.5" filter="url(#filter0_f_129_4406)">
<circle cx="-3.5" cy="0.5" r="206.5" fill="#F04451" fill-opacity="0.5"/>
</g>
<g opacity="0.5" filter="url(#filter1_f_129_4406)">
<circle cx="959.5" cy="799.5" r="206.5" fill="#F04451" fill-opacity="0.5"/>
</g>
<path d="M59.3279 207.208C68.2029 207.676 77.0978 207.581 85.9588 206.925C87.8541 206.791 89.7521 206.627 91.6299 206.438C95.802 206.044 99.9499 205.43 104.056 204.6C104.663 203.344 105.857 200.875 105.857 200.875L95.0762 193.576L90.6483 190.578L90.6317 190.586C91.4847 179.105 87.9568 167.719 80.7539 158.705C80.7349 158.82 80.7112 158.943 80.6911 159.06C78.4647 170.145 74.4462 180.793 68.7927 190.588C65.4151 196.754 60.9462 202.258 55.6015 206.836C56.6221 206.968 57.6937 207.072 58.7905 207.161C58.9711 207.176 59.1457 207.194 59.3279 207.208Z" fill="#343849"/>
<path d="M229.517 694.565C217.049 693.928 204.551 694.086 192.1 695.038C189.437 695.232 186.77 695.47 184.131 695.742C178.268 696.311 172.439 697.19 166.667 698.375C165.81 700.154 164.127 703.649 164.127 703.649L179.254 713.943L185.467 718.171L185.49 718.16C184.261 734.401 189.186 750.495 199.282 763.224C199.309 763.061 199.343 762.888 199.371 762.722C202.529 747.038 208.204 731.967 216.174 718.098C220.936 709.368 227.229 701.571 234.751 695.082C233.318 694.898 231.812 694.753 230.271 694.63C230.018 694.609 229.773 694.584 229.517 694.565Z" fill="#343849"/>
<path d="M728.328 238.208C737.203 238.676 746.098 238.581 754.959 237.925C756.854 237.791 758.752 237.627 760.63 237.438C764.802 237.044 768.95 236.43 773.056 235.6C773.663 234.344 774.857 231.875 774.857 231.875L764.076 224.576L759.648 221.578L759.632 221.586C760.485 210.105 756.957 198.719 749.754 189.705C749.735 189.82 749.711 189.943 749.691 190.06C747.465 201.145 743.446 211.793 737.793 221.588C734.415 227.754 729.946 233.258 724.601 237.836C725.622 237.968 726.694 238.072 727.791 238.161C727.971 238.176 728.146 238.194 728.328 238.208Z" fill="#343849"/>
<defs>
<filter id="filter0_f_129_4406" x="-710" y="-706" width="1413" height="1413" filterUnits="userSpaceOnUse" color-interpolation-filters="sRGB">
<feFlood flood-opacity="0" result="BackgroundImageFix"/>
<feBlend mode="normal" in="SourceGraphic" in2="BackgroundImageFix" result="shape"/>
<feGaussianBlur stdDeviation="250" result="effect1_foregroundBlur_129_4406"/>
</filter>
<filter id="filter1_f_129_4406" x="253" y="93" width="1413" height="1413" filterUnits="userSpaceOnUse" color-interpolation-filters="sRGB">
<feFlood flood-opacity="0" result="BackgroundImageFix"/>
<feBlend mode="normal" in="SourceGraphic" in2="BackgroundImageFix" result="shape"/>
<feGaussianBlur stdDeviation="250" result="effect1_foregroundBlur_129_4406"/>
</filter>
</defs>
</svg>
