<svg width="640" height="800" viewBox="0 0 640 800" fill="none" xmlns="http://www.w3.org/2000/svg">
<g opacity="0.5" filter="url(#filter0_f_129_4414)">
<circle cx="542.5" cy="699.5" r="206.5" fill="#F04451" fill-opacity="0.5"/>
</g>
<g opacity="0.5" filter="url(#filter1_f_129_4414)">
<circle cx="63.5" cy="18.5" r="206.5" fill="#F04451" fill-opacity="0.5"/>
</g>
<path d="M543.176 564.8C540.427 573.251 538.216 581.868 536.557 590.597C536.195 592.462 535.863 594.338 535.56 596.201C534.86 600.332 534.379 604.498 534.118 608.679C535.175 609.591 537.25 611.382 537.25 611.382L547.091 602.858L551.133 599.357L551.13 599.339C561.998 603.135 573.91 602.674 584.48 598.049C584.374 598.001 584.262 597.946 584.154 597.897C574.023 592.877 564.778 586.24 556.78 578.244C551.698 573.385 547.538 567.644 544.5 561.297C544.108 562.248 543.73 563.256 543.36 564.293C543.299 564.463 543.236 564.627 543.176 564.8Z" fill="#343849"/>
<path d="M513.336 171.909C521.701 181.176 530.65 189.902 540.128 198.032C542.148 199.778 544.202 201.496 546.261 203.169C550.808 206.913 555.552 210.414 560.471 213.656C562.335 213.005 565.996 211.723 565.996 211.723L562.579 193.748L561.175 186.365L561.151 186.356C573.504 175.742 581.402 160.878 583.264 144.739C583.13 144.835 582.983 144.934 582.846 145.031C569.522 153.888 554.853 160.533 539.411 164.704C529.871 167.509 519.907 168.573 510 167.842C510.883 168.986 511.845 170.153 512.848 171.33C513.013 171.524 513.168 171.715 513.336 171.909Z" fill="#343849"/>
<path d="M67.6959 742.395C76.3896 740.55 84.9568 738.157 93.346 735.229C95.1422 734.609 96.933 733.96 98.6978 733.291C102.626 731.831 106.474 730.165 110.225 728.3C110.486 726.929 111 724.236 111 724.236L98.6978 719.976L93.6449 718.226L93.6308 718.238C91.4834 706.927 85.1286 696.842 75.8383 690C75.8498 690.116 75.8586 690.24 75.8694 690.359C76.588 701.642 75.4624 712.968 72.5365 723.892C70.8699 730.722 67.9779 737.195 64 743C65.02 742.864 66.0822 742.687 67.1647 742.489C67.343 742.457 67.5163 742.429 67.6959 742.395Z" fill="#343849"/>
<defs>
<filter id="filter0_f_129_4414" x="-164" y="-7" width="1413" height="1413" filterUnits="userSpaceOnUse" color-interpolation-filters="sRGB">
<feFlood flood-opacity="0" result="BackgroundImageFix"/>
<feBlend mode="normal" in="SourceGraphic" in2="BackgroundImageFix" result="shape"/>
<feGaussianBlur stdDeviation="250" result="effect1_foregroundBlur_129_4414"/>
</filter>
<filter id="filter1_f_129_4414" x="-643" y="-688" width="1413" height="1413" filterUnits="userSpaceOnUse" color-interpolation-filters="sRGB">
<feFlood flood-opacity="0" result="BackgroundImageFix"/>
<feBlend mode="normal" in="SourceGraphic" in2="BackgroundImageFix" result="shape"/>
<feGaussianBlur stdDeviation="250" result="effect1_foregroundBlur_129_4414"/>
</filter>
</defs>
</svg>
