<svg width="960" height="800" viewBox="0 0 960 800" fill="none" xmlns="http://www.w3.org/2000/svg">
<g opacity="0.5" filter="url(#filter0_f_129_4413)">
<circle cx="881.5" cy="764.5" r="206.5" fill="#F04451" fill-opacity="0.5"/>
</g>
<g opacity="0.5" filter="url(#filter1_f_129_4413)">
<circle cx="8.5" cy="132.5" r="206.5" fill="#F04451" fill-opacity="0.5"/>
</g>
<path d="M787.336 213.909C795.701 223.176 804.65 231.902 814.128 240.032C816.148 241.778 818.202 243.496 820.261 245.169C824.808 248.913 829.552 252.414 834.471 255.656C836.335 255.005 839.996 253.723 839.996 253.723L836.579 235.748L835.175 228.365L835.151 228.356C847.504 217.742 855.402 202.878 857.264 186.739C857.13 186.835 856.983 186.934 856.846 187.031C843.522 195.888 828.853 202.533 813.411 206.704C803.871 209.509 793.907 210.573 784 209.842C784.883 210.986 785.845 212.153 786.848 213.33C787.013 213.524 787.168 213.715 787.336 213.909Z" fill="#343849"/>
<path d="M171.696 708.395C180.39 706.55 188.957 704.157 197.346 701.229C199.142 700.609 200.933 699.96 202.698 699.291C206.626 697.831 210.474 696.165 214.225 694.3C214.486 692.929 215 690.236 215 690.236L202.698 685.976L197.645 684.226L197.631 684.238C195.483 672.927 189.129 662.842 179.838 656C179.85 656.116 179.859 656.24 179.869 656.359C180.588 667.642 179.462 678.968 176.537 689.892C174.87 696.722 171.978 703.195 168 709C169.02 708.864 170.082 708.687 171.165 708.489C171.343 708.457 171.516 708.429 171.696 708.395Z" fill="#343849"/>
<path d="M818.176 670.8C815.427 679.251 813.216 687.868 811.557 696.597C811.195 698.462 810.863 700.338 810.56 702.201C809.86 706.332 809.379 710.498 809.118 714.679C810.175 715.591 812.25 717.382 812.25 717.382L822.091 708.858L826.133 705.357L826.13 705.339C836.998 709.135 848.91 708.674 859.48 704.049C859.374 704.001 859.262 703.946 859.154 703.897C849.023 698.877 839.778 692.24 831.78 684.244C826.698 679.385 822.538 673.644 819.5 667.297C819.108 668.248 818.73 669.256 818.36 670.293C818.299 670.463 818.236 670.627 818.176 670.8Z" fill="#343849"/>
<defs>
<filter id="filter0_f_129_4413" x="175" y="58" width="1413" height="1413" filterUnits="userSpaceOnUse" color-interpolation-filters="sRGB">
<feFlood flood-opacity="0" result="BackgroundImageFix"/>
<feBlend mode="normal" in="SourceGraphic" in2="BackgroundImageFix" result="shape"/>
<feGaussianBlur stdDeviation="250" result="effect1_foregroundBlur_129_4413"/>
</filter>
<filter id="filter1_f_129_4413" x="-698" y="-574" width="1413" height="1413" filterUnits="userSpaceOnUse" color-interpolation-filters="sRGB">
<feFlood flood-opacity="0" result="BackgroundImageFix"/>
<feBlend mode="normal" in="SourceGraphic" in2="BackgroundImageFix" result="shape"/>
<feGaussianBlur stdDeviation="250" result="effect1_foregroundBlur_129_4413"/>
</filter>
</defs>
</svg>
