<svg width="360" height="800" viewBox="0 0 360 800" fill="none" xmlns="http://www.w3.org/2000/svg">
<g opacity="0.5" filter="url(#filter0_f_277_5847)">
<circle cx="29.5" cy="4.5" r="206.5" fill="#F04451" fill-opacity="0.5"/>
</g>
<g opacity="0.5" filter="url(#filter1_f_277_5847)">
<circle cx="379.5" cy="841.5" r="206.5" fill="#F04451" fill-opacity="0.5"/>
</g>
<path d="M55.2081 791.672C55.6759 782.797 55.5813 773.902 54.9248 765.041C54.791 763.146 54.6269 761.248 54.4376 759.37C54.0438 755.198 53.4304 751.05 52.5999 746.944C51.3437 746.337 48.875 745.143 48.875 745.143L41.5761 755.924L38.5782 760.352L38.5858 760.368C27.105 759.515 15.7187 763.043 6.70542 770.246C6.82021 770.265 6.94296 770.289 7.05986 770.309C18.1452 772.535 28.7931 776.554 38.5878 782.207C44.7536 785.585 50.2581 790.054 54.8355 795.399C54.9677 794.378 55.0722 793.306 55.1614 792.209C55.1763 792.029 55.1944 791.854 55.2081 791.672Z" fill="#343849"/>
<path d="M283.919 713.434C288.73 718.772 293.875 723.8 299.323 728.487C300.485 729.493 301.665 730.483 302.849 731.447C305.463 733.605 308.189 735.624 311.016 737.494C312.084 737.121 314.184 736.388 314.184 736.388L312.204 726.046L311.391 721.798L311.377 721.793C318.456 715.701 322.973 707.161 324.025 697.88C323.948 697.935 323.864 697.992 323.785 698.047C316.148 703.128 307.735 706.934 298.877 709.317C293.404 710.92 287.687 711.522 282 711.091C282.508 711.75 283.062 712.422 283.638 713.1C283.733 713.212 283.822 713.322 283.919 713.434Z" fill="#343849"/>
<path d="M335.069 245.576C337.287 238.74 339.069 231.77 340.403 224.709C340.694 223.2 340.961 221.682 341.205 220.175C341.767 216.833 342.152 213.462 342.358 210.079C341.501 209.34 339.816 207.888 339.816 207.888L331.849 214.774L328.577 217.602L328.58 217.617C319.765 214.532 310.11 214.89 301.547 218.62C301.633 218.659 301.724 218.703 301.811 218.744C310.03 222.818 317.532 228.2 324.025 234.68C328.15 238.618 331.529 243.269 334 248.409C334.316 247.639 334.622 246.824 334.921 245.986C334.97 245.848 335.021 245.715 335.069 245.576Z" fill="#343849"/>
<defs>
<filter id="filter0_f_277_5847" x="-677" y="-702" width="1413" height="1413" filterUnits="userSpaceOnUse" color-interpolation-filters="sRGB">
<feFlood flood-opacity="0" result="BackgroundImageFix"/>
<feBlend mode="normal" in="SourceGraphic" in2="BackgroundImageFix" result="shape"/>
<feGaussianBlur stdDeviation="250" result="effect1_foregroundBlur_277_5847"/>
</filter>
<filter id="filter1_f_277_5847" x="-327" y="135" width="1413" height="1413" filterUnits="userSpaceOnUse" color-interpolation-filters="sRGB">
<feFlood flood-opacity="0" result="BackgroundImageFix"/>
<feBlend mode="normal" in="SourceGraphic" in2="BackgroundImageFix" result="shape"/>
<feGaussianBlur stdDeviation="250" result="effect1_foregroundBlur_277_5847"/>
</filter>
</defs>
</svg>
