<svg width="960" height="800" viewBox="0 0 960 800" fill="none" xmlns="http://www.w3.org/2000/svg">
<path d="M878.336 242.909C886.701 252.176 895.65 260.902 905.128 269.032C907.148 270.778 909.202 272.496 911.261 274.169C915.808 277.913 920.552 281.414 925.471 284.656C927.335 284.005 930.996 282.723 930.996 282.723L927.579 264.748L926.175 257.365L926.151 257.356C938.504 246.742 946.402 231.878 948.264 215.739C948.13 215.835 947.983 215.934 947.846 216.031C934.522 224.888 919.853 231.533 904.411 235.704C894.871 238.509 884.907 239.573 875 238.842C875.883 239.986 876.845 241.153 877.848 242.33C878.013 242.524 878.168 242.715 878.336 242.909Z" fill="#343849"/>
<g opacity="0.5" filter="url(#filter0_f_129_4428)">
<circle cx="12.5" cy="41.5" r="206.5" fill="#F04451" fill-opacity="0.5"/>
</g>
<g opacity="0.5" filter="url(#filter1_f_129_4428)">
<circle cx="771.5" cy="679.5" r="206.5" fill="#F04451" fill-opacity="0.5"/>
</g>
<path d="M852.176 702.8C849.427 711.251 847.216 719.868 845.557 728.597C845.195 730.462 844.863 732.338 844.56 734.201C843.86 738.332 843.379 742.498 843.118 746.679C844.175 747.591 846.25 749.382 846.25 749.382L856.091 740.858L860.133 737.357L860.13 737.339C870.998 741.135 882.91 740.674 893.48 736.049C893.374 736.001 893.262 735.946 893.154 735.897C883.023 730.877 873.778 724.24 865.78 716.244C860.698 711.385 856.538 705.644 853.5 699.297C853.108 700.248 852.73 701.256 852.36 702.293C852.299 702.463 852.236 702.627 852.176 702.8Z" fill="#343849"/>
<path d="M221.696 689.395C230.39 687.55 238.957 685.157 247.346 682.229C249.142 681.609 250.933 680.96 252.698 680.291C256.626 678.831 260.474 677.165 264.225 675.3C264.486 673.929 265 671.236 265 671.236L252.698 666.976L247.645 665.226L247.631 665.238C245.483 653.927 239.129 643.842 229.838 637C229.85 637.116 229.859 637.24 229.869 637.359C230.588 648.642 229.462 659.968 226.537 670.892C224.87 677.722 221.978 684.195 218 690C219.02 689.864 220.082 689.687 221.165 689.489C221.343 689.457 221.516 689.429 221.696 689.395Z" fill="#343849"/>
<defs>
<filter id="filter0_f_129_4428" x="-694" y="-665" width="1413" height="1413" filterUnits="userSpaceOnUse" color-interpolation-filters="sRGB">
<feFlood flood-opacity="0" result="BackgroundImageFix"/>
<feBlend mode="normal" in="SourceGraphic" in2="BackgroundImageFix" result="shape"/>
<feGaussianBlur stdDeviation="250" result="effect1_foregroundBlur_129_4428"/>
</filter>
<filter id="filter1_f_129_4428" x="65" y="-27" width="1413" height="1413" filterUnits="userSpaceOnUse" color-interpolation-filters="sRGB">
<feFlood flood-opacity="0" result="BackgroundImageFix"/>
<feBlend mode="normal" in="SourceGraphic" in2="BackgroundImageFix" result="shape"/>
<feGaussianBlur stdDeviation="250" result="effect1_foregroundBlur_129_4428"/>
</filter>
</defs>
</svg>
