<svg width="1920" height="1000" viewBox="0 0 1920 1000" fill="none" xmlns="http://www.w3.org/2000/svg">
<path d="M1643.7 219.238L1643.7 219.236C1646.57 204.015 1650.4 188.993 1655.17 174.26C1655.23 174.089 1655.29 173.932 1655.35 173.771C1655.39 173.647 1655.44 173.521 1655.49 173.384L1655.49 173.383C1656 171.952 1656.51 170.555 1657.04 169.214C1662.37 179.969 1669.55 189.715 1678.24 198.007C1692.22 211.939 1708.34 223.533 1726 232.346C1707.87 239.923 1687.54 240.525 1668.95 234.01L1668.14 233.728L1668.25 234.32L1661.39 240.234L1644.51 254.803L1644.24 254.569L1642.79 253.315L1639.53 250.51C1639.97 243.306 1640.79 236.13 1641.98 229.013L1641.98 229.01C1642.5 225.761 1643.08 222.49 1643.7 219.238Z" stroke="white"/>
<path d="M223.606 863.776C229.784 858.199 235.601 852.233 241.022 845.915C242.185 844.568 243.331 843.199 244.446 841.826C246.942 838.794 249.276 835.632 251.438 832.352C251.003 831.11 250.149 828.669 250.149 828.669L238.165 830.947L233.243 831.883L233.238 831.899C226.161 823.664 216.252 818.399 205.493 817.157C205.557 817.247 205.623 817.344 205.687 817.436C211.592 826.318 216.022 836.098 218.803 846.393C220.673 852.753 221.382 859.395 220.895 866C221.658 865.411 222.435 864.77 223.22 864.102C223.349 863.992 223.477 863.888 223.606 863.776Z" fill="#343849"/>
<path d="M1760.2 673.313C1760.81 662.177 1760.71 651.018 1759.92 639.902C1759.76 637.524 1759.56 635.143 1759.32 632.788C1758.84 627.554 1758.09 622.352 1757.07 617.202C1755.5 616.443 1752.43 614.952 1752.43 614.952L1743.31 628.496L1739.56 634.059L1739.57 634.08C1725.27 633.038 1711.07 637.493 1699.82 646.553C1699.97 646.576 1700.12 646.606 1700.27 646.631C1714.07 649.396 1727.33 654.411 1739.52 661.48C1747.19 665.702 1754.04 671.295 1759.73 677.99C1759.9 676.709 1760.03 675.364 1760.14 673.988C1760.16 673.761 1760.19 673.542 1760.2 673.313Z" fill="#343849"/>
<path d="M163.352 539.212C161.933 538.56 160.509 537.882 159.1 537.184C152.498 533.941 146.098 530.287 139.938 526.245C139.866 526.195 139.797 526.146 139.727 526.096C139.676 526.06 139.625 526.023 139.573 525.987C139.021 525.602 138.482 525.217 137.965 524.833L174.346 501.46C174.379 501.676 174.41 501.892 174.439 502.109M163.352 539.212C166.494 540.679 169.708 541.981 172.979 543.112M163.352 539.212L163.352 539.212L163.352 539.212ZM172.979 543.112L175.765 541.235M172.979 543.112L172.7 542.697L172.907 542.557M172.979 543.112L173.142 542.639C173.064 542.612 172.985 542.585 172.907 542.557M175.765 541.235L170.991 531.573L169.036 527.617L169.029 527.612L168.978 528.102L168.963 528.1L168.704 528.073M175.765 541.235L175.317 541.457L175.123 541.065M175.765 541.235L175.486 540.82L175.486 540.82L175.485 540.821L175.484 540.821L175.48 540.824L175.465 540.834L175.404 540.875L175.182 541.025L175.123 541.065M168.704 528.073L168.581 527.826L169.014 527.612L169.022 527.608L169.015 527.603L169.066 527.105L169.081 527.107L169.327 527.132C174.206 519.652 176.176 510.592 174.875 501.617C174.73 501.781 174.585 501.945 174.439 502.109M168.704 528.073L170.542 531.794L175.123 541.065M168.704 528.073L168.134 528.014L168.6 527.323C173.559 519.975 175.627 511.014 174.439 502.109M174.439 502.109C168.464 508.787 161.447 514.454 153.646 518.901C149.023 521.677 143.947 523.637 138.633 524.704C139.03 524.994 139.44 525.285 139.859 525.577L139.859 525.577C139.92 525.62 139.973 525.657 140.024 525.693C140.087 525.739 140.147 525.781 140.217 525.83C146.358 529.859 152.738 533.502 159.32 536.735L159.322 536.735C160.726 537.432 162.145 538.107 163.56 538.757L163.563 538.759L163.563 538.759C166.615 540.183 169.733 541.451 172.907 542.557M172.907 542.557L174.445 541.521L175.123 541.065" stroke="white"/>
<path d="M395.641 148.388C390.092 149.572 384.623 151.107 379.269 152.985C378.122 153.383 376.979 153.799 375.852 154.229C373.345 155.165 370.889 156.234 368.495 157.43C368.328 158.31 368 160.038 368 160.038L375.852 162.77L379.078 163.893L379.087 163.885C380.457 171.141 384.514 177.611 390.444 182C390.436 181.926 390.431 181.846 390.424 181.77C389.965 174.531 390.684 167.266 392.551 160.258C393.615 155.877 395.461 151.724 398 148C397.349 148.088 396.671 148.201 395.98 148.328C395.866 148.348 395.756 148.366 395.641 148.388Z" fill="#343849"/>
<g opacity="0.5" filter="url(#filter0_f_19541_4712)">
<circle cx="1513.5" cy="919.5" r="206.5" fill="#F04451" fill-opacity="0.5"/>
</g>
<g opacity="0.5" filter="url(#filter1_f_19541_4712)">
<circle cx="574.5" cy="276.5" r="206.5" fill="#F04451" fill-opacity="0.5"/>
</g>
<defs>
<filter id="filter0_f_19541_4712" x="807" y="213" width="1413" height="1413" filterUnits="userSpaceOnUse" color-interpolation-filters="sRGB">
<feFlood flood-opacity="0" result="BackgroundImageFix"/>
<feBlend mode="normal" in="SourceGraphic" in2="BackgroundImageFix" result="shape"/>
<feGaussianBlur stdDeviation="250" result="effect1_foregroundBlur_19541_4712"/>
</filter>
<filter id="filter1_f_19541_4712" x="-132" y="-430" width="1413" height="1413" filterUnits="userSpaceOnUse" color-interpolation-filters="sRGB">
<feFlood flood-opacity="0" result="BackgroundImageFix"/>
<feBlend mode="normal" in="SourceGraphic" in2="BackgroundImageFix" result="shape"/>
<feGaussianBlur stdDeviation="250" result="effect1_foregroundBlur_19541_4712"/>
</filter>
</defs>
</svg>
