<svg width="127" height="255" viewBox="0 0 127 255" fill="none" xmlns="http://www.w3.org/2000/svg">
<g opacity="0.1" clip-path="url(#clip0_19538_2324)">
<path d="M-0.499969 8.50267C23.036 8.50265 46.0434 15.4818 65.6129 28.5577C85.1823 41.6335 100.435 60.2187 109.442 81.9631C118.448 103.707 120.805 127.634 116.214 150.718C111.622 173.802 100.288 195.005 83.6459 211.648C61.3262 233.951 31.0625 246.477 -0.490685 246.471C-32.0438 246.465 -62.303 233.928 -84.6144 211.617C-106.926 189.306 -119.463 159.046 -119.469 127.493C-119.475 95.9403 -106.949 65.6765 -84.6458 43.3568C-73.6213 32.272 -60.5077 23.484 -46.064 17.5012C-31.6204 11.5185 -16.1336 8.46 -0.499931 8.50268L-0.499969 8.50267ZM-0.499931 0.00268555C-25.717 0.00268555 -50.3679 7.48042 -71.3351 21.4903C-92.3024 35.5002 -108.644 55.4129 -118.295 78.7105C-127.945 102.008 -130.47 127.644 -125.55 152.377C-120.63 177.109 -108.487 199.827 -90.6561 217.659C-72.8249 235.49 -50.1065 247.633 -25.374 252.553C-0.64138 257.472 24.9946 254.947 48.2922 245.297C71.5898 235.647 91.5025 219.305 105.512 198.338C119.522 177.37 127 152.72 127 127.503C127 110.759 123.702 94.1795 117.295 78.7105C110.887 63.2415 101.496 49.186 89.6562 37.3465C77.8167 25.5071 63.7612 16.1155 48.2922 9.70802C32.8232 3.30055 16.2436 0.00267662 -0.499931 0.00268555Z" fill="#3B355B"/>
<path d="M-0.520874 226.414C9.1644 226.414 17.0159 218.563 17.0159 208.878C17.0159 199.192 9.1644 191.341 -0.520874 191.341C-10.2062 191.341 -18.0576 199.192 -18.0576 208.878C-18.0576 218.563 -10.2062 226.414 -0.520874 226.414Z" fill="#3B355B"/>
<path d="M69.7777 186.115C79.4632 186.115 87.3148 178.263 87.3148 168.578C87.3148 158.892 79.4632 151.041 69.7777 151.041C60.0923 151.041 52.2407 158.892 52.2407 168.578C52.2407 178.263 60.0923 186.115 69.7777 186.115Z" fill="#3B355B"/>
<path d="M69.7777 103.924C79.4632 103.924 87.3148 96.072 87.3148 86.3866C87.3148 76.7012 79.4632 68.8496 69.7777 68.8496C60.0923 68.8496 52.2407 76.7012 52.2407 86.3866C52.2407 96.072 60.0923 103.924 69.7777 103.924Z" fill="#3B355B"/>
<path d="M-0.520874 63.6228C9.1644 63.6228 17.0159 55.7713 17.0159 46.0861C17.0159 36.4008 9.1644 28.5493 -0.520874 28.5493C-10.2062 28.5493 -18.0576 36.4008 -18.0576 46.0861C-18.0576 55.7713 -10.2062 63.6228 -0.520874 63.6228Z" fill="#3B355B"/>
<path d="M-0.520107 92.1438C-8.71057 92.1344 -16.6506 94.967 -22.9856 100.158C-29.3207 105.35 -33.6583 112.578 -35.2586 120.611C-36.8588 128.644 -35.6224 136.983 -31.7605 144.206C-27.8985 151.428 -21.6502 157.088 -14.0814 160.218C-6.51265 163.348 1.90767 163.755 9.74309 161.369C17.5785 158.984 24.3436 153.954 28.8843 147.137C33.4249 140.321 35.4599 132.14 34.642 123.99C33.8241 115.841 30.204 108.228 24.3992 102.449C21.1259 99.1792 17.2404 96.5859 12.9647 94.8177C8.68895 93.0495 4.1068 92.1409 -0.520107 92.1438ZM12.3976 140.513L13.5323 147.178L-0.520084 139.603L-14.5721 147.178L-13.3971 140.246L-11.9208 131.535L-23.2837 120.437L-9.64972 118.466L-7.56498 118.164L-0.520107 103.924L6.487 118.013L8.53895 118.31L22.2058 120.286L10.8428 131.383L12.3976 140.513Z" fill="#3B355B"/>
<path d="M50.0102 59.9468L49.591 59.6405C44.2062 55.7114 38.3816 52.4235 32.2353 49.8435C31.9899 51.9739 31.5366 54.0752 30.8818 56.1172C35.9418 58.3333 40.7571 61.0706 45.2497 64.2849C46.6927 62.6885 48.287 61.2358 50.0102 59.9468Z" fill="#3B355B"/>
<path d="M83.8269 138.721L83.9331 137.692C84.6402 130.86 84.5214 123.968 83.5795 117.164L83.4737 116.4C81.5222 117.299 79.487 118.002 77.3975 118.502C78.1885 124.481 78.2939 130.531 77.7116 136.535C79.8174 137.059 81.8659 137.792 83.8269 138.721Z" fill="#3B355B"/>
<path d="M45.1374 190.552C40.6831 193.791 35.8986 196.55 30.8638 198.782C31.5242 200.826 31.9823 202.931 32.2313 205.065L32.3015 205.035C38.539 202.377 44.4331 198.976 49.856 194.906C48.1469 193.61 46.5667 192.152 45.1374 190.552Z" fill="#3B355B"/>
<path d="M-0.519245 180.143C-4.29882 180.136 -8.04271 180.874 -11.537 182.314C-15.0314 183.755 -18.2077 185.869 -20.8845 188.538C-23.5613 191.206 -25.6862 194.376 -27.1377 197.865C-28.5892 201.355 -29.339 205.097 -29.3442 208.876C-29.3494 212.656 -28.6099 216.399 -27.1679 219.893C-25.7259 223.387 -23.6097 226.562 -20.9402 229.238C-18.2708 231.913 -15.1003 234.037 -11.6099 235.487C-8.11953 236.937 -4.37768 237.685 -0.598103 237.689H-0.55617C7.07147 237.688 14.3868 234.659 19.782 229.267C25.1772 223.875 28.2106 216.562 28.2155 208.934C28.2204 201.306 25.1964 193.989 19.8081 188.59C14.4199 183.191 7.1084 180.153 -0.519232 180.143H-0.519245ZM21.5741 208.916C21.5673 214.774 19.237 220.39 15.0944 224.532C10.9518 228.675 5.33525 231.004 -0.52298 231.011H-0.559088C-6.42631 231.011 -12.0536 228.682 -16.2042 224.535C-20.3548 220.388 -22.6889 214.763 -22.6936 208.895C-22.6983 203.028 -20.3731 197.399 -16.2291 193.246C-12.0852 189.092 -6.46157 186.754 -0.594353 186.745H-0.558245C5.30299 186.752 10.9227 189.081 15.0707 193.222C19.2187 197.363 21.5572 202.979 21.5741 208.84L21.5741 208.916Z" fill="#3B355B"/>
<path d="M69.782 139.806H69.7397C62.1159 139.807 54.804 142.833 49.4097 148.22C44.0153 153.607 40.9795 160.915 40.9688 168.539C40.9679 169.138 40.9908 169.765 41.0406 170.513C41.5212 177.454 44.4958 183.987 49.4155 188.906C54.3352 193.826 60.8681 196.801 67.8089 197.281C68.5415 197.33 69.1562 197.336 69.7447 197.352C77.3724 197.352 84.6878 194.323 90.083 188.931C95.4783 183.539 98.5118 176.225 98.5168 168.598C98.5217 160.97 95.4977 153.652 90.1095 148.253C84.7212 142.855 77.4097 139.816 69.782 139.806H69.782ZM91.875 168.579C91.8662 174.44 89.5365 180.059 85.3954 184.207C81.2543 188.354 75.6389 190.693 69.7779 190.711H69.7052C63.8417 190.701 58.2216 188.365 54.0789 184.216C49.9362 180.066 47.6096 174.442 47.6097 168.578C47.6099 162.715 49.9369 157.091 54.0798 152.941C58.2227 148.792 63.8429 146.456 69.7065 146.447H69.7426C75.6037 146.453 81.2234 148.782 85.3715 152.923C89.5195 157.064 91.858 162.68 91.875 168.541V168.579Z" fill="#3B355B"/>
<path d="M41.0387 84.4531C40.991 85.1728 40.9682 85.7746 40.9673 86.3465C40.9621 90.1251 41.7011 93.8678 43.1423 97.3607C44.5835 100.854 46.6986 104.029 49.3668 106.704C52.035 109.38 55.2041 111.503 58.6931 112.954C62.1821 114.405 65.9227 115.154 69.7013 115.159H69.7412C77.3691 115.16 84.6851 112.131 90.0808 106.739C95.4766 101.347 98.5105 94.0336 98.5157 86.4057C98.521 78.7777 95.4971 71.4598 90.1087 66.0606C84.7204 60.6614 77.4086 57.6227 69.7806 57.6125H69.7802C69.1904 57.6217 68.5629 57.635 67.8067 57.6848C60.8657 58.1652 54.3328 61.1397 49.4131 66.0594C44.4934 70.9792 41.519 77.5122 41.0387 84.4531ZM63.2072 65.236C65.3122 64.587 67.5023 64.256 69.7051 64.254H69.7433C75.6062 64.2544 81.2294 66.5812 85.3785 70.7235C89.5277 74.8659 91.8636 80.4853 91.8736 86.3482V86.3864C91.8648 92.2475 89.5351 97.8665 85.394 102.014C81.2528 106.162 75.6375 108.501 69.7765 108.519H69.7399C64.4415 108.52 59.3186 106.62 55.3019 103.164C51.2853 99.7088 48.6414 94.9272 47.8507 89.6882C47.0599 84.4491 48.1748 79.1002 50.9927 74.6132C53.8106 70.1263 58.1446 66.7991 63.2072 65.236L63.2072 65.236Z" fill="#3B355B"/>
<path d="M69.7388 106.393V108.518L69.7537 106.393L69.7388 106.393Z" fill="#3B355B"/>
<path d="M-0.597403 74.8591H-0.55756C7.07037 74.8593 14.3862 71.8306 19.7819 66.4387C25.1775 61.0468 28.2114 53.7331 28.2166 46.1052C28.2217 38.4772 25.1978 31.1594 19.8095 25.7602C14.4211 20.361 7.10938 17.3224 -0.518545 17.3123H-0.55839C-8.18632 17.3121 -15.5022 20.3408 -20.8978 25.7326C-26.2935 31.1245 -29.3273 38.4382 -29.3325 46.0662C-29.3377 53.6941 -26.3138 61.0119 -20.9254 66.4111C-15.5371 71.8103 -8.22533 74.8489 -0.597403 74.8591ZM-16.2336 30.4233C-14.1865 28.3583 -11.7501 26.7199 -9.06551 25.6028C-6.38091 24.4857 -3.5014 23.9122 -0.593668 23.9155H-0.555899C5.31107 23.9155 10.938 26.245 15.0881 30.392C19.2383 34.539 21.572 40.1641 21.5765 46.0311C21.581 51.8981 19.2557 57.5267 15.1119 61.68C10.968 65.8333 5.34468 68.1714 -0.522282 68.1803H-0.55839C-4.93271 68.1803 -9.20893 66.8841 -12.847 64.4553C-16.4851 62.0265 -19.3219 58.5741 -20.9992 54.5342C-22.6764 50.4942 -23.1189 46.0477 -22.2707 41.7564C-21.4225 37.4651 -19.3217 33.5214 -16.2336 30.4233Z" fill="#3B355B"/>
</g>
<defs>
<clipPath id="clip0_19538_2324">
<rect width="255" height="255" fill="white" transform="translate(-128)"/>
</clipPath>
</defs>
</svg>
