<svg width="127" height="255" viewBox="0 0 127 255" fill="none" xmlns="http://www.w3.org/2000/svg">
<g opacity="0.1">
<g clip-path="url(#clip0_19538_4286)">
<path d="M88.9061 156.898C93.3301 156.898 97.6548 158.21 101.333 160.668C105.012 163.126 107.879 166.619 109.572 170.707C111.265 174.794 111.708 179.291 110.845 183.631C109.982 187.97 107.851 191.955 104.723 195.084C100.528 199.278 94.8386 201.635 88.9061 201.635C82.9736 201.635 77.2842 199.278 73.0893 195.084C68.8944 190.889 66.5377 185.199 66.5377 179.267C66.5377 173.334 68.8943 167.645 73.0892 163.45C75.1615 161.366 77.6264 159.714 80.3414 158.59C83.0564 157.465 85.9674 156.89 88.9061 156.898ZM88.9061 155.301C84.166 155.301 79.5324 156.706 75.5912 159.34C71.65 161.973 68.5782 165.716 66.7643 170.095C64.9503 174.474 64.4757 179.293 65.4005 183.942C66.3252 188.591 68.6077 192.862 71.9595 196.213C75.3112 199.565 79.5816 201.848 84.2305 202.772C88.8795 203.697 93.6983 203.222 98.0775 201.408C102.457 199.595 106.2 196.523 108.833 192.582C111.467 188.64 112.872 184.007 112.872 179.267C112.872 172.91 110.347 166.815 105.853 162.32C101.358 157.826 95.2623 155.301 88.9061 155.301Z" fill="#3B355B"/>
<path d="M95.4275 190.151H91.1289V171.015L100.764 168.684C101.026 168.62 101.253 168.455 101.393 168.225C101.534 167.994 101.578 167.717 101.514 167.455C101.451 167.192 101.285 166.966 101.055 166.825C100.824 166.685 100.547 166.641 100.285 166.705L90.9926 168.953C90.8361 168.522 90.5509 168.15 90.1757 167.886C89.8005 167.623 89.3534 167.481 88.8949 167.48H88.8948C88.3025 167.481 87.7346 167.717 87.3158 168.136C86.897 168.554 86.6614 169.122 86.6607 169.715V170.001L77.0257 172.333C76.8956 172.364 76.7729 172.42 76.6647 172.499C76.5565 172.578 76.4649 172.677 76.3951 172.791C76.3253 172.906 76.2787 173.032 76.2579 173.165C76.2372 173.297 76.2427 173.432 76.2742 173.562C76.3056 173.692 76.3624 173.815 76.4413 173.923C76.5202 174.031 76.6197 174.122 76.7339 174.192C76.8482 174.262 76.9751 174.308 77.1073 174.328C77.2396 174.349 77.3746 174.343 77.5046 174.312L86.6607 172.096V190.151H82.3621C82.0921 190.151 81.8331 190.258 81.6422 190.449C81.4513 190.64 81.344 190.899 81.344 191.169C81.344 191.439 81.4513 191.698 81.6422 191.889C81.8331 192.08 82.0921 192.187 82.3621 192.187H95.4275C95.6976 192.187 95.9565 192.08 96.1474 191.889C96.3384 191.698 96.4456 191.439 96.4456 191.169C96.4456 190.899 96.3384 190.64 96.1474 190.449C95.9565 190.258 95.6976 190.151 95.4275 190.151L95.4275 190.151Z" fill="#3B355B"/>
<path d="M83.8419 179.883C83.8797 179.731 83.8823 179.572 83.8496 179.418C83.8169 179.264 83.7496 179.12 83.6529 178.996C83.5563 178.872 83.4327 178.772 83.2915 178.703C83.1504 178.634 82.9954 178.598 82.8382 178.597H74.2924C74.1352 178.598 73.9802 178.634 73.8391 178.703C73.698 178.772 73.5744 178.872 73.4777 178.996C73.381 179.12 73.3138 179.264 73.2811 179.418C73.2483 179.572 73.2509 179.731 73.2887 179.883C73.5772 181.065 74.254 182.116 75.2107 182.867C76.1675 183.619 77.3488 184.027 78.5653 184.027C79.7818 184.027 80.9631 183.619 81.9199 182.867C82.8766 182.116 83.5534 181.065 83.8419 179.883H83.8419Z" fill="#3B355B"/>
<path d="M103.879 175.329H95.3329C95.1758 175.33 95.0208 175.366 94.8796 175.435C94.7385 175.504 94.6149 175.604 94.5183 175.728C94.4216 175.852 94.3543 175.996 94.3216 176.15C94.2888 176.304 94.2915 176.463 94.3293 176.615C94.6177 177.797 95.2945 178.848 96.2513 179.599C97.208 180.351 98.3893 180.759 99.6058 180.759C100.822 180.759 102.004 180.351 102.96 179.599C103.917 178.848 104.594 177.797 104.882 176.615C104.92 176.463 104.923 176.304 104.89 176.15C104.857 175.996 104.79 175.852 104.693 175.728C104.597 175.604 104.473 175.504 104.332 175.435C104.191 175.366 104.036 175.33 103.879 175.329Z" fill="#3B355B"/>
</g>
<g clip-path="url(#clip1_19538_4286)">
<path d="M40.9735 79.2476C45.3975 79.2477 49.7222 80.5595 53.4007 83.0174C57.0791 85.4753 59.9462 88.9688 61.6392 93.056C63.3322 97.1433 63.7752 101.641 62.9121 105.98C62.049 110.319 59.9186 114.305 56.7903 117.433C52.5955 121.628 46.906 123.984 40.9735 123.984C35.041 123.984 29.3515 121.628 25.1566 117.433C20.9617 113.238 18.6051 107.549 18.6051 101.616C18.6051 95.6836 20.9617 89.9941 25.1566 85.7992C27.2289 83.7156 29.6938 82.0637 32.4088 80.9391C35.1238 79.8145 38.0348 79.2396 40.9735 79.2476ZM40.9735 77.6499C36.2334 77.6499 31.5998 79.0555 27.6586 81.6889C23.7174 84.3224 20.6456 88.0654 18.8316 92.4446C17.0177 96.8238 16.5431 101.643 17.4678 106.292C18.3926 110.941 20.6751 115.211 24.0269 118.563C27.3786 121.914 31.6489 124.197 36.2979 125.122C40.9469 126.046 45.7657 125.572 50.1449 123.758C54.5242 121.944 58.2672 118.872 60.9006 114.931C63.534 110.99 64.9396 106.356 64.9396 101.616C64.9396 95.2598 62.4146 89.164 57.9201 84.6694C53.4256 80.1749 47.3297 77.6499 40.9735 77.6499Z" fill="#3B355B"/>
<path d="M45.241 101.562L45.188 101.5C45.1451 101.454 45.1103 101.405 45.067 101.362C44.574 100.852 44.0003 100.428 43.3692 100.106L43.0401 99.9468C43.06 99.9468 43.0747 99.915 43.0919 99.9005C43.6341 99.5158 44.0461 98.9749 44.2729 98.35C44.2729 98.35 44.3579 98.0641 44.3914 97.9457C44.5959 97.2846 44.5928 96.5767 44.3826 95.9174C44.1725 95.2581 43.7652 94.6791 43.2158 94.2583C42.6022 93.7471 41.8337 93.4586 41.0353 93.4397C40.2369 93.4208 39.4556 93.6727 38.8185 94.1544C38.2913 94.5422 37.8896 95.0764 37.6634 95.6905C37.546 95.9667 37.4692 96.2585 37.4354 96.5568V96.5799C37.4179 96.7332 37.413 96.8878 37.421 97.0419C37.4214 97.1616 37.4292 97.2812 37.4441 97.4C37.4426 97.4153 37.4426 97.4308 37.4441 97.4462C37.4753 97.7422 37.5431 98.0331 37.6459 98.3124C37.7209 98.5031 37.8128 98.6867 37.9205 98.861C38.1434 99.2579 38.4486 99.6024 38.8156 99.8716C38.843 99.8983 38.8719 99.9234 38.9022 99.9468L38.5702 100.106C37.8522 100.465 37.2097 100.959 36.6772 101.56C37.1821 101.702 37.6521 101.947 38.0576 102.279C38.5887 102.691 38.9958 103.241 39.2343 103.869C39.7708 103.608 40.3593 103.471 40.9559 103.469C40.9872 103.469 41.0188 103.47 41.0498 103.47C41.6295 103.486 42.1988 103.628 42.7175 103.887C42.7259 103.866 42.733 103.844 42.7419 103.822C42.9887 103.166 43.4204 102.595 43.9847 102.179C44.3616 101.897 44.7876 101.688 45.241 101.562Z" fill="#3B355B"/>
<path d="M49.3935 108.549C49.3617 108.515 49.3361 108.478 49.3041 108.446C48.9396 108.07 48.5156 107.756 48.0491 107.518L47.8059 107.4C47.8206 107.4 47.8314 107.377 47.8442 107.366C48.245 107.082 48.5495 106.682 48.7171 106.22C48.7171 106.22 48.7799 106.009 48.8047 105.921C48.9559 105.433 48.9536 104.91 48.7982 104.422C48.6429 103.935 48.3419 103.507 47.9357 103.196C47.4823 102.818 46.9143 102.605 46.3242 102.591C46.3034 102.59 46.2827 102.59 46.262 102.59C45.6937 102.595 45.1417 102.78 44.6855 103.119C44.2958 103.406 43.9989 103.801 43.8318 104.255C43.7862 104.362 43.7489 104.473 43.7202 104.587C44.2482 105.075 44.6279 105.703 44.8155 106.397C45.0031 107.091 44.9912 107.825 44.781 108.513C44.7671 108.561 44.7361 108.704 44.7361 108.704L44.7211 108.745L44.6657 108.898C44.5929 109.098 44.5033 109.292 44.3978 109.477C44.6193 109.651 44.8288 109.84 45.0249 110.042C45.0783 110.096 45.1184 110.145 45.1429 110.174L45.1487 110.181L45.1567 110.19L45.1725 110.208L45.2642 110.315C45.6787 110.794 45.9985 111.347 46.2065 111.945C47.5848 111.243 48.8096 110.274 49.8095 109.094C49.7121 108.939 49.603 108.792 49.4832 108.653L49.3935 108.549Z" fill="#3B355B"/>
<path d="M37.3256 103.196C36.8703 102.821 36.3034 102.608 35.714 102.591C35.6933 102.59 35.6725 102.59 35.6518 102.59C35.0828 102.59 34.5292 102.776 34.0753 103.119C33.6856 103.406 33.3887 103.801 33.2216 104.255C33.1347 104.459 33.078 104.674 33.053 104.895V104.912C33.0401 105.025 33.0365 105.139 33.0423 105.253C33.0427 105.342 33.0484 105.43 33.0594 105.518C33.0583 105.529 33.0583 105.541 33.0594 105.552C33.0824 105.771 33.1326 105.986 33.2086 106.192C33.2641 106.333 33.332 106.469 33.4116 106.598C33.5763 106.891 33.8019 107.146 34.0732 107.345C34.0935 107.365 34.1149 107.383 34.1373 107.4L33.8917 107.518C33.1719 107.869 32.5628 108.412 32.1313 109.087C33.1315 110.269 34.3572 111.24 35.7368 111.943C36.0846 110.957 36.715 110.096 37.5495 109.467C37.4409 109.285 37.3474 109.095 37.2699 108.898L37.2651 108.885L37.2606 108.873C37.245 108.831 37.2319 108.788 37.2178 108.745C37.1277 108.474 37.0669 108.195 37.0364 107.911L37.0359 107.907L37.0355 107.902C37.0327 107.874 37.0308 107.846 37.0299 107.817C37.0193 107.714 37.0133 107.608 37.0119 107.503C37.0055 107.351 37.0092 107.199 37.0231 107.048V107.024L37.0305 106.958C37.0686 106.621 37.154 106.291 37.2844 105.978C37.4869 105.44 37.8093 104.956 38.2269 104.562C38.2149 104.515 38.2028 104.469 38.1881 104.422C38.0329 103.935 37.7319 103.507 37.3256 103.196Z" fill="#3B355B"/>
<path d="M56.8771 100.598H56.7364C56.4842 96.7705 54.8498 93.1649 52.1373 90.4524C49.4249 87.74 45.8192 86.1056 41.9916 85.8534V85.7127C41.9916 85.4427 41.8843 85.1837 41.6934 84.9928C41.5024 84.8018 41.2435 84.6946 40.9735 84.6946C40.7035 84.6946 40.4445 84.8018 40.2536 84.9928C40.0626 85.1837 39.9554 85.4427 39.9554 85.7127V85.8534C36.1277 86.1056 32.5221 87.74 29.8096 90.4524C27.0972 93.1649 25.4628 96.7705 25.2106 100.598H25.0699C24.9362 100.598 24.8038 100.625 24.6802 100.676C24.5567 100.727 24.4445 100.802 24.3499 100.896C24.2554 100.991 24.1804 101.103 24.1293 101.227C24.0781 101.35 24.0518 101.483 24.0518 101.616C24.0518 101.75 24.0781 101.882 24.1293 102.006C24.1804 102.129 24.2554 102.242 24.3499 102.336C24.4445 102.431 24.5567 102.506 24.6802 102.557C24.8038 102.608 24.9362 102.634 25.0699 102.634H25.2106C25.4738 106.723 27.3185 110.549 30.3539 113.301C30.5668 113.495 30.7851 113.682 31.009 113.864C31.2704 114.077 31.5385 114.282 31.8133 114.479C32.1061 114.688 32.4062 114.887 32.7136 115.076C33.5702 115.604 34.4755 116.048 35.417 116.403C35.6324 116.484 35.8501 116.561 36.0699 116.633C36.9186 116.911 37.7894 117.115 38.673 117.245C39.0953 117.307 39.5227 117.352 39.9554 117.379V117.52C39.9554 117.79 40.0626 118.049 40.2536 118.24C40.4445 118.431 40.7035 118.538 40.9735 118.538C41.2435 118.538 41.5024 118.431 41.6934 118.24C41.8843 118.049 41.9916 117.79 41.9916 117.52V117.379C42.4239 117.352 42.8514 117.307 43.274 117.245C44.158 117.115 45.0293 116.91 45.8784 116.632C46.098 116.56 46.3155 116.484 46.5308 116.403C47.472 116.048 48.3769 115.604 49.2334 115.076C49.5403 114.887 49.8404 114.688 50.1335 114.479C50.409 114.282 50.6776 114.077 50.9395 113.863C51.1627 113.681 51.3808 113.493 51.5939 113.3C54.6288 110.548 56.4731 106.723 56.7364 102.634H56.8771C57.1471 102.634 57.4061 102.527 57.597 102.336C57.7879 102.145 57.8952 101.886 57.8952 101.616C57.8952 101.346 57.7879 101.087 57.597 100.896C57.4061 100.705 57.1471 100.598 56.8771 100.598V100.598ZM52.5092 100.598H52.2737C52.0037 100.598 51.7447 100.705 51.5538 100.896C51.3629 101.087 51.2556 101.346 51.2556 101.616C51.2556 101.886 51.3629 102.145 51.5538 102.336C51.7447 102.527 52.0037 102.634 52.2737 102.634H54.6922C54.4815 105.51 53.3688 108.245 51.5126 110.451C51.3431 110.653 51.167 110.849 50.9865 111.04C50.8033 111.235 50.6145 111.424 50.4203 111.608C49.4492 112.527 48.3499 113.3 47.1566 113.904C46.9556 114.005 46.752 114.102 46.5455 114.194C46.3537 114.279 46.1596 114.36 45.9632 114.436C45.9181 114.454 45.8734 114.473 45.8281 114.49C45.6796 114.546 45.5295 114.598 45.3787 114.649C44.284 115.023 43.1455 115.254 41.9916 115.335V113.152C42.0395 113.148 42.0881 113.146 42.1358 113.141C43.1626 113.038 44.1708 112.796 45.1331 112.424C44.9756 111.93 44.7185 111.473 44.3776 111.082L44.2824 110.971C44.2486 110.935 44.2214 110.896 44.1874 110.862C43.8002 110.462 43.3499 110.129 42.8544 109.876L42.5959 109.751C42.6116 109.751 42.6232 109.726 42.6367 109.715C43.0595 109.41 43.3822 108.986 43.564 108.498C43.564 108.498 43.6307 108.273 43.6569 108.18C43.6721 108.131 43.6844 108.081 43.6967 108.031C43.8191 107.53 43.7932 107.003 43.6223 106.516C43.4514 106.028 43.1428 105.601 42.734 105.285C42.2497 104.888 41.648 104.662 41.0222 104.642C41.0002 104.642 40.978 104.642 40.9559 104.642C40.432 104.642 39.9189 104.79 39.4757 105.07C39.4094 105.112 39.3447 105.156 39.2816 105.203C38.8679 105.508 38.5527 105.928 38.3748 106.41C38.2825 106.626 38.2222 106.856 38.1958 107.09V107.108C38.1896 107.161 38.1863 107.214 38.1841 107.268L38.1837 107.272C38.1813 107.338 38.181 107.405 38.1844 107.471C38.1848 107.565 38.1908 107.658 38.2026 107.752C38.2014 107.764 38.2014 107.776 38.2026 107.788C38.2115 107.873 38.2256 107.957 38.2422 108.041C38.2705 108.186 38.3102 108.329 38.361 108.468C38.399 108.563 38.4424 108.655 38.4909 108.745C38.5183 108.797 38.5457 108.849 38.5765 108.899C38.7516 109.21 38.9912 109.481 39.2793 109.692C39.3009 109.713 39.3236 109.733 39.3473 109.751L39.0867 109.876C37.9323 110.475 37.171 111.323 36.8123 112.423C37.7756 112.796 38.7848 113.038 39.8126 113.141C39.8599 113.146 39.9079 113.148 39.9554 113.152V115.335C38.8011 115.254 37.6622 115.023 36.5673 114.649C36.4168 114.598 36.2669 114.546 36.1188 114.49C36.0731 114.472 36.028 114.454 35.9824 114.436C35.7856 114.359 35.5911 114.278 35.3988 114.192C35.1932 114.101 34.9904 114.005 34.7903 113.904C33.5954 113.299 32.4947 112.525 31.5226 111.604C31.3271 111.419 31.1371 111.228 30.9526 111.032C30.7721 110.84 30.5961 110.644 30.4268 110.442C28.5751 108.238 27.4651 105.506 27.2547 102.634H29.6733C29.807 102.634 29.9394 102.608 30.063 102.557C30.1865 102.506 30.2987 102.431 30.3932 102.336C30.4878 102.242 30.5628 102.129 30.6139 102.006C30.6651 101.882 30.6914 101.75 30.6914 101.616C30.6914 101.483 30.6651 101.35 30.6139 101.227C30.5628 101.103 30.4878 100.991 30.3932 100.896C30.2987 100.802 30.1865 100.727 30.063 100.676C29.9394 100.625 29.807 100.598 29.6733 100.598H27.2547C27.5027 97.3121 28.9205 94.2238 31.2507 91.8935C33.5809 89.5633 36.6693 88.1456 39.9554 87.8976V90.3162C39.9554 90.5862 40.0626 90.8451 40.2536 91.0361C40.4445 91.227 40.7035 91.3343 40.9735 91.3343C41.2435 91.3343 41.5024 91.227 41.6934 91.0361C41.8843 90.8451 41.9916 90.5862 41.9916 90.3162V87.8976C45.2777 88.1455 48.366 89.5633 50.6963 91.8935C53.0265 94.2237 54.4442 97.3121 54.6922 100.598H52.5092Z" fill="#3B355B"/>
</g>
<g clip-path="url(#clip2_19538_4286)">
<path d="M65.8983 1.5975C70.3223 1.59751 74.647 2.90939 78.3255 5.36727C82.0039 7.82514 84.871 11.3186 86.564 15.4059C88.257 19.4932 88.6999 23.9907 87.8369 28.3298C86.9738 32.6688 84.8434 36.6545 81.7151 39.7828C77.5203 43.9776 71.8308 46.3343 65.8983 46.3343C59.9658 46.3343 54.2763 43.9777 50.0814 39.7828C45.8865 35.5879 43.5299 29.8984 43.5299 23.966C43.5299 18.0335 45.8865 12.344 50.0814 8.1491C52.1537 6.06547 54.6186 4.41356 57.3336 3.28897C60.0486 2.16439 62.9596 1.58947 65.8983 1.5975ZM65.8983 -0.000244141C61.1582 -0.000244141 56.5246 1.40534 52.5834 4.03878C48.6422 6.67221 45.5704 10.4152 43.7565 14.7944C41.9425 19.1737 41.4679 23.9925 42.3926 28.6414C43.3174 33.2904 45.5999 37.5608 48.9517 40.9125C52.3034 44.2642 56.5737 46.5468 61.2227 47.4715C65.8717 48.3963 70.6905 47.9216 75.0697 46.1077C79.449 44.2938 83.192 41.222 85.8254 37.2808C88.4588 33.3395 89.8644 28.7059 89.8644 23.9659C89.8644 17.6097 87.3394 11.5138 82.8449 7.01928C78.3504 2.52476 72.2545 -0.000234394 65.8983 -0.000244141Z" fill="#3B355B"/>
<path d="M75.807 29.7567C75.7784 28.8419 75.6514 27.9328 75.4284 27.0451C75.0978 25.7413 74.4649 24.5337 73.5809 23.52L73.366 23.2693C73.2898 23.1874 73.2284 23.1004 73.1517 23.0237C72.4026 22.2508 71.5482 21.5877 70.6136 21.0539L68.9511 21.588L67.9102 21.9223L66.8431 22.2652C66.7941 22.281 66.7442 22.2937 66.6944 22.3066C67.065 22.323 67.2914 22.619 67.1044 22.8595L66.5986 23.5102C66.5712 23.5434 66.5516 23.5823 66.5412 23.624C66.5309 23.6658 66.5299 23.7093 66.5386 23.7515L68.7105 33.7713L67.9169 34.2078L66.4007 35.0418L65.7886 35.3784L65.1765 35.0418L63.6602 34.2078L62.8667 33.7713L65.0385 23.7515C65.0471 23.7093 65.0462 23.6658 65.0358 23.624C65.0255 23.5823 65.0059 23.5434 64.9785 23.5102L64.4727 22.8595C64.2804 22.6121 64.525 22.3051 64.9145 22.3051H65.078C65.0199 22.2898 64.9617 22.2738 64.9045 22.2546L63.8832 21.9126L62.8918 21.5806L61.2918 21.0447C61.2719 21.0373 61.2526 21.0286 61.2339 21.0186C57.8504 22.9197 56.0698 25.8353 55.9708 29.8027C55.9299 31.5321 55.9708 33.2613 55.9708 34.9957C55.9708 35.7683 56.2932 36.1059 57.0606 36.1059H74.7378C75.5052 36.1059 75.8275 35.7683 75.8275 34.9957C75.8377 33.246 75.8684 31.5013 75.807 29.7567Z" fill="#3B355B"/>
<path d="M59.6451 16.0041C59.6426 16.0313 59.6426 16.0587 59.6451 16.0859C59.7004 16.6104 59.8205 17.1259 60.0028 17.6208C60.1357 17.9586 60.2985 18.284 60.4893 18.5929C60.843 19.2217 61.3137 19.7771 61.876 20.2291L64.5305 21.1182L65.2092 21.3454C65.392 21.4068 65.5836 21.438 65.7765 21.438H66.0038C66.1892 21.438 66.3735 21.4091 66.5501 21.3523L67.287 21.1156L69.8293 20.2989C70.7033 19.6283 71.3678 18.7223 71.7449 17.6873C71.7449 17.6873 71.8954 17.1808 71.9547 16.971C72.3171 15.7996 72.3117 14.5454 71.9393 13.3772C71.5668 12.209 70.8453 11.183 69.8719 10.4376C68.7847 9.53175 67.4229 9.02053 66.0082 8.9871C64.5936 8.95367 63.2092 9.4 62.0804 10.2534C61.1462 10.9405 60.4345 11.887 60.0339 12.9753C59.8257 13.4647 59.6896 13.9817 59.6298 14.5102V14.551C59.5987 14.8228 59.5902 15.0965 59.6042 15.3697C59.605 15.5818 59.6187 15.7936 59.6451 16.0041Z" fill="#3B355B"/>
</g>
<g clip-path="url(#clip3_19538_4286)">
<path d="M65.8983 208.665C70.3223 208.665 74.647 209.977 78.3255 212.435C82.0039 214.893 84.871 218.386 86.564 222.474C88.257 226.561 88.7 231.058 87.8369 235.397C86.9738 239.736 84.8434 243.722 81.7151 246.85C77.5203 251.045 71.8308 253.402 65.8983 253.402C59.9658 253.402 54.2763 251.045 50.0814 246.85C45.8866 242.656 43.5299 236.966 43.5299 231.034C43.5299 225.101 45.8865 219.412 50.0814 215.217C52.1537 213.133 54.6186 211.481 57.3336 210.357C60.0486 209.232 62.9596 208.657 65.8983 208.665ZM65.8983 207.067C61.1582 207.067 56.5246 208.473 52.5834 211.106C48.6422 213.74 45.5704 217.483 43.7565 221.862C41.9425 226.241 41.4679 231.06 42.3926 235.709C43.3174 240.358 45.5999 244.628 48.9517 247.98C52.3034 251.332 56.5737 253.614 61.2227 254.539C65.8717 255.464 70.6905 254.989 75.0697 253.175C79.449 251.361 83.192 248.29 85.8254 244.348C88.4588 240.407 89.8644 235.774 89.8644 231.034C89.8644 224.677 87.3394 218.581 82.8449 214.087C78.3504 209.592 72.2545 207.067 65.8983 207.067Z" fill="#3B355B"/>
<path d="M65.8967 234.619C66.5613 234.62 67.2195 234.489 67.833 234.233C68.4466 233.978 69.0033 233.603 69.471 233.131C69.9386 232.658 70.3078 232.098 70.5572 231.482C70.8066 230.866 70.9312 230.206 70.9238 229.542V221.002C70.9298 220.338 70.8041 219.679 70.554 219.063C70.3039 218.448 69.9343 217.888 69.4667 217.416C68.999 216.945 68.4425 216.57 67.8293 216.315C67.2161 216.059 66.5584 215.928 65.8941 215.928C65.2298 215.928 64.5722 216.06 63.9591 216.316C63.3461 216.571 62.7897 216.946 62.3223 217.418C61.8549 217.89 61.4856 218.45 61.2358 219.066C60.9861 219.681 60.8607 220.34 60.867 221.004V229.544C60.8597 230.209 60.9844 230.869 61.234 231.485C61.4836 232.101 61.8531 232.661 62.3211 233.133C62.789 233.605 63.346 233.98 63.9598 234.235C64.5736 234.49 65.232 234.62 65.8967 234.619ZM61.6973 222.212V221.122C61.6973 220.008 62.1399 218.94 62.9278 218.152C63.7157 217.364 64.7843 216.921 65.8985 216.921C67.0127 216.921 68.0813 217.364 68.8692 218.152C69.657 218.94 70.0997 220.008 70.0997 221.122V222.222C70.0997 222.434 70.0155 222.637 69.8657 222.787C69.7159 222.937 69.5127 223.021 69.3008 223.021C69.0889 223.021 68.8857 222.937 68.7359 222.787C68.5861 222.637 68.5019 222.434 68.5019 222.222V221.122C68.5019 220.432 68.2276 219.77 67.7394 219.281C67.2512 218.793 66.589 218.519 65.8985 218.519C65.208 218.519 64.5458 218.793 64.0576 219.281C63.5693 219.77 63.2951 220.432 63.2951 221.122V222.212C63.2951 222.424 63.2109 222.627 63.0611 222.777C62.9113 222.927 62.7081 223.011 62.4962 223.011C62.2843 223.011 62.0811 222.927 61.9313 222.777C61.7815 222.627 61.6973 222.424 61.6973 222.212Z" fill="#3B355B"/>
<path d="M76.1823 225.082C75.928 225.082 75.6842 225.183 75.5044 225.363C75.3246 225.542 75.2236 225.786 75.2236 226.041V229.335C75.2207 231.442 74.5055 233.486 73.1943 235.135C71.8832 236.784 70.053 237.942 68.001 238.419V237.759C68.001 237.201 67.7794 236.666 67.3849 236.272C66.9904 235.877 66.4553 235.655 65.8974 235.655C65.3394 235.655 64.8044 235.877 64.4099 236.272C64.0153 236.666 63.7937 237.201 63.7937 237.759V238.419C61.7418 237.942 59.9116 236.784 58.6004 235.135C57.2893 233.486 56.5741 231.442 56.5711 229.335V226.01C56.5711 225.756 56.4701 225.512 56.2903 225.332C56.1105 225.153 55.8667 225.052 55.6125 225.052C55.3582 225.052 55.1144 225.153 54.9346 225.332C54.7548 225.512 54.6538 225.756 54.6538 226.01V229.335C54.6574 231.951 55.5717 234.484 57.2395 236.499C58.9073 238.514 61.2247 239.886 63.7937 240.379V244.468H60.392C60.1377 244.468 59.8939 244.569 59.7141 244.749C59.5343 244.929 59.4333 245.173 59.4333 245.427C59.4333 245.681 59.5343 245.925 59.7141 246.105C59.8939 246.285 60.1377 246.386 60.392 246.386H71.4028C71.657 246.386 71.9009 246.285 72.0807 246.105C72.2604 245.925 72.3614 245.681 72.3614 245.427C72.3614 245.173 72.2604 244.929 72.0807 244.749C71.9009 244.569 71.657 244.468 71.4028 244.468H68.001V240.379C70.5701 239.886 72.8874 238.514 74.5552 236.499C76.2231 234.484 77.1373 231.951 77.1409 229.335V226.041C77.1409 225.786 77.0399 225.542 76.8601 225.363C76.6804 225.183 76.4365 225.082 76.1823 225.082Z" fill="#3B355B"/>
</g>
<g clip-path="url(#clip4_19538_4286)">
<path d="M17.9661 182.782C22.3902 182.782 26.7149 184.093 30.3934 186.551C34.0718 189.009 36.9388 192.503 38.6318 196.59C40.3249 200.677 40.7678 205.175 39.9047 209.514C39.0417 213.853 36.9113 217.839 33.783 220.967C29.5881 225.162 23.8986 227.518 17.9662 227.518C12.0337 227.518 6.34421 225.162 2.14932 220.967C-2.04558 216.772 -4.40225 211.083 -4.40226 205.15C-4.40226 199.218 -2.04561 193.528 2.14928 189.333C4.22154 187.25 6.68649 185.598 9.40146 184.473C12.1164 183.348 15.0275 182.774 17.9661 182.782ZM17.9661 181.184C13.2261 181.184 8.59249 182.589 4.65128 185.223C0.710065 187.856 -2.36174 191.599 -4.17568 195.979C-5.98962 200.358 -6.46423 205.177 -5.53949 209.826C-4.61475 214.475 -2.33219 218.745 1.01953 222.097C4.37125 225.448 8.64161 227.731 13.2906 228.656C17.9396 229.58 22.7584 229.106 27.1376 227.292C31.5168 225.478 35.2598 222.406 37.8933 218.465C40.5267 214.524 41.9323 209.89 41.9323 205.15C41.9323 198.794 39.4073 192.698 34.9128 188.203C30.4182 183.709 24.3224 181.184 17.9661 181.184Z" fill="#3B355B"/>
<path d="M5.55889 208.577V201.745C4.91254 201.837 4.25349 201.766 3.6416 201.538V208.716C4.25915 208.511 4.91813 208.463 5.55889 208.577V208.577Z" fill="#3B355B"/>
<path d="M14.2537 218.614C14.2705 218.572 14.2879 218.531 14.3059 218.49C14.3839 218.313 14.4748 218.142 14.578 217.979C14.6528 217.861 14.7339 217.746 14.8209 217.636L8.49114 213.982C8.23381 214.584 7.83057 215.112 7.31787 215.518L14.0323 219.395C14.0607 219.229 14.0998 219.065 14.1494 218.905C14.1801 218.806 14.2155 218.71 14.2537 218.614Z" fill="#3B355B"/>
<path d="M27.3629 214.104C27.3629 214.104 27.3591 214.096 27.3629 214.104L21.0601 217.743C21.4496 218.27 21.7001 218.886 21.7886 219.536L28.595 215.606C28.0654 215.216 27.6418 214.699 27.3629 214.104Z" fill="#3B355B"/>
<path d="M25.4396 208.577C26.378 206.967 27.2799 205.335 28.1452 203.682C28.541 202.918 28.928 202.148 29.3063 201.373C29.0367 201.239 28.7834 201.075 28.5514 200.883C28.0449 201.596 27.5492 202.316 27.0641 203.042C26.0525 204.558 25.0782 206.097 24.1412 207.658L22.3195 206.368C22.159 206.91 21.8955 207.416 21.5433 207.859C21.4853 207.932 21.4255 208.004 21.363 208.074C21.3544 208.083 21.346 208.093 21.3374 208.103C21.3199 208.122 21.3015 208.14 21.2837 208.159L23.2944 209.084C22.3009 210.782 21.3472 212.504 20.4332 214.249C20.061 214.968 19.6962 215.691 19.3389 216.419C19.6276 216.533 19.9018 216.681 20.1556 216.86C20.616 216.207 21.0676 215.549 21.5106 214.887C22.6346 213.202 23.7134 211.49 24.7469 209.752L27.2987 210.926C27.4087 210.665 27.5467 210.416 27.7103 210.184L25.4396 208.577Z" fill="#3B355B"/>
<path d="M21.1882 205.567C21.3007 204.83 21.1521 204.077 20.7681 203.437C20.3841 202.798 19.7888 202.313 19.0852 202.067C18.3816 201.82 17.6138 201.826 16.9147 202.086C16.2155 202.345 15.6289 202.84 15.2562 203.486C14.8836 204.132 14.7483 204.888 14.8737 205.623C14.9992 206.358 15.3775 207.026 15.9433 207.512C16.5091 207.997 17.2268 208.27 17.9724 208.282C18.7179 208.295 19.4445 208.047 20.0264 207.581C20.6532 207.08 21.0681 206.36 21.1882 205.567Z" fill="#3B355B"/>
<path d="M21.2178 192.523V192.523L27.5135 196.158C27.6044 195.97 27.7102 195.789 27.8298 195.617C27.8914 195.529 27.9558 195.443 28.0242 195.36C28.0643 195.311 28.1054 195.264 28.1477 195.217C28.2862 195.065 28.4364 194.924 28.597 194.796C28.6521 194.751 28.7085 194.708 28.7662 194.667L21.9275 190.719V190.719C21.8464 191.37 21.6023 191.991 21.2178 192.523Z" fill="#3B355B"/>
<path d="M15.9645 191.878C16.1852 192.155 16.4594 192.386 16.7709 192.555C17.0824 192.724 17.4247 192.829 17.7775 192.864C17.8616 192.872 17.9464 192.877 18.0326 192.877C18.1187 192.877 18.2036 192.872 18.2876 192.864C18.9421 192.799 19.5492 192.493 19.9913 192.006C20.4335 191.52 20.6792 190.886 20.6809 190.228C20.6809 190.149 20.6759 190.07 20.669 189.992C20.6104 189.333 20.3073 188.72 19.8193 188.274C19.3314 187.827 18.694 187.58 18.0326 187.58C17.3712 187.58 16.7338 187.827 16.2459 188.274C15.7579 188.72 15.4548 189.333 15.3962 189.992C15.3893 190.07 15.3843 190.149 15.3843 190.228C15.3841 190.828 15.5888 191.41 15.9645 191.878Z" fill="#3B355B"/>
<path d="M8.91113 198.304C9.78123 198.376 10.6513 198.434 11.5213 198.483C13.4199 198.586 15.3186 198.638 17.217 198.65L17.0158 200.731C17.6843 200.574 18.38 200.574 19.0485 200.731L18.8472 198.651C20.7458 198.64 22.6444 198.585 24.5429 198.485C25.4131 198.436 26.2833 198.378 27.1535 198.306V198.306C27.1185 198.008 27.1185 197.707 27.1535 197.409C26.2833 197.336 25.4131 197.278 24.5429 197.229C22.5932 197.124 20.6434 197.072 18.6936 197.062L18.4104 194.136C18.2859 194.148 18.1598 194.155 18.0321 194.155C17.9045 194.155 17.7784 194.148 17.6539 194.136L17.3707 197.063C15.421 197.074 13.4712 197.126 11.5214 197.231C10.6513 197.281 9.78123 197.339 8.91113 197.411C8.94577 197.707 8.94577 198.007 8.91113 198.304L8.91113 198.304Z" fill="#3B355B"/>
<path d="M10.5311 208.643L8.17457 210.312C8.32103 210.538 8.44377 210.778 8.54085 211.029L11.2137 209.8C12.2416 211.52 13.3108 213.215 14.4212 214.886C14.8516 215.527 15.2889 216.165 15.7329 216.798C15.8789 216.701 16.0312 216.614 16.1888 216.537C16.1915 216.536 16.1941 216.534 16.1968 216.533C16.319 216.474 16.4441 216.422 16.5717 216.376C16.2226 215.662 15.8649 214.953 15.4986 214.249C14.5965 212.518 13.6522 210.813 12.6655 209.132L14.7813 208.159C14.4129 207.772 14.1177 207.321 13.9101 206.829C13.8722 206.739 13.8382 206.648 13.8062 206.555C13.7846 206.493 13.7644 206.431 13.7455 206.368L11.8303 207.724C10.8786 206.142 9.89103 204.581 8.86765 203.042C8.39636 202.34 7.91662 201.642 7.42843 200.95C7.1884 201.138 6.92729 201.297 6.65039 201.425C7.01917 202.183 7.39788 202.935 7.78652 203.682C8.66114 205.36 9.576 207.013 10.5311 208.643Z" fill="#3B355B"/>
<path d="M30.506 209.831C29.8464 209.941 29.2552 210.303 28.8562 210.84C28.4573 211.377 28.2816 212.048 28.3659 212.711C28.4502 213.375 28.7879 213.98 29.3084 214.4C29.8289 214.821 30.4918 215.023 31.1582 214.966C31.8247 214.908 32.4431 214.595 32.8839 214.092C33.3247 213.589 33.5537 212.934 33.5231 212.266C33.4924 211.598 33.2044 210.967 32.7193 210.507C32.2343 210.046 31.5899 209.791 30.9209 209.795C30.7819 209.796 30.6432 209.808 30.506 209.831Z" fill="#3B355B"/>
<path d="M7.37382 211.567C7.15435 210.954 6.71307 210.446 6.13717 210.143C5.56127 209.84 4.89265 209.764 4.26342 209.93C3.63418 210.096 3.09012 210.492 2.73871 211.04C2.38731 211.587 2.25414 212.247 2.3655 212.888C2.47687 213.529 2.82469 214.105 3.34021 214.502C3.85574 214.9 4.50148 215.089 5.14985 215.033C5.79822 214.977 6.40204 214.68 6.84201 214.201C7.28197 213.721 7.52608 213.094 7.5261 212.443C7.52545 212.145 7.47395 211.848 7.37382 211.567Z" fill="#3B355B"/>
<path d="M8.55151 196.158L14.8473 192.523L14.8406 192.514C14.7941 192.449 14.7496 192.383 14.707 192.315C14.4025 191.831 14.2081 191.286 14.1376 190.719V190.719L7.29883 194.667C7.83444 195.051 8.26514 195.564 8.55151 196.158Z" fill="#3B355B"/>
<path d="M6.67827 199.912C7.18028 199.503 7.515 198.925 7.61904 198.286C7.72308 197.647 7.5892 196.992 7.24277 196.445C6.89635 195.899 6.36142 195.498 5.73932 195.319C5.11723 195.14 4.45116 195.196 3.86729 195.475C3.28342 195.755 2.8223 196.239 2.57126 196.835C2.32022 197.432 2.2967 198.1 2.50516 198.713C2.71362 199.325 3.13958 199.84 3.70235 200.16C4.26512 200.48 4.92563 200.582 5.55876 200.448C5.7456 200.408 5.92749 200.347 6.10119 200.268C6.30799 200.174 6.50194 200.055 6.67827 199.912Z" fill="#3B355B"/>
<path d="M30.5059 201.745V208.539C30.6437 208.524 30.7822 208.517 30.9207 208.517C31.4363 208.516 31.9469 208.618 32.4231 208.815V201.538C31.8112 201.766 31.1522 201.837 30.5059 201.745Z" fill="#3B355B"/>
<path d="M28.4059 197.857C28.3995 198.572 28.6718 199.261 29.1649 199.778C29.6581 200.296 30.3334 200.601 31.0477 200.629C31.7619 200.657 32.459 200.405 32.991 199.928C33.5231 199.451 33.8483 198.785 33.8978 198.072C33.9472 197.359 33.717 196.654 33.256 196.108C32.7949 195.562 32.1392 195.217 31.4279 195.146C30.7166 195.075 30.0057 195.284 29.4458 195.728C28.886 196.173 28.5212 196.818 28.4288 197.526C28.4143 197.636 28.4066 197.747 28.4059 197.857Z" fill="#3B355B"/>
<path d="M19.4078 217.898C19.0105 217.624 18.5458 217.463 18.0639 217.434C17.582 217.404 17.1011 217.507 16.6732 217.731C16.2454 217.954 15.8868 218.291 15.6361 218.703C15.3855 219.116 15.2523 219.589 15.251 220.072C15.251 220.081 15.2522 220.09 15.2523 220.099C15.2588 220.783 15.5296 221.438 16.0082 221.926C16.4867 222.415 17.1358 222.699 17.8192 222.719C18.5027 222.74 19.1676 222.495 19.6745 222.036C20.1814 221.577 20.491 220.94 20.5384 220.258C20.5427 220.196 20.5477 220.135 20.5477 220.072C20.5483 219.457 20.334 218.862 19.9418 218.388C19.7869 218.201 19.6073 218.037 19.4078 217.898Z" fill="#3B355B"/>
</g>
<g clip-path="url(#clip5_19538_4286)">
<path d="M17.9661 27.4808C22.3902 27.4808 26.7149 28.7927 30.3934 31.2506C34.0718 33.7084 36.9388 37.2019 38.6319 41.2892C40.3249 45.3765 40.7678 49.874 39.9047 54.2131C39.0416 58.5521 36.9113 62.5378 33.783 65.6661C31.7059 67.7432 29.24 69.3908 26.5262 70.5149C23.8123 71.639 20.9036 72.2176 17.9661 72.2176C15.0287 72.2176 12.12 71.639 9.40614 70.5149C6.69228 69.3908 4.22641 67.7432 2.14932 65.6661C0.0722208 63.589 -1.57542 61.1231 -2.69954 58.4092C-3.82365 55.6954 -4.40223 52.7867 -4.40223 49.8492C-4.40223 46.9118 -3.82365 44.0031 -2.69954 41.2892C-1.57542 38.5754 0.0722213 36.1095 2.14932 34.0324C4.22157 31.9488 6.68651 30.2969 9.40148 29.1723C12.1164 28.0477 15.0275 27.4728 17.9661 27.4808ZM17.9661 25.8831C13.2261 25.8831 8.59249 27.2886 4.65127 29.9221C0.710063 32.5555 -2.36174 36.2985 -4.17568 40.6777C-5.98962 45.057 -6.46423 49.8758 -5.53949 54.5247C-4.61475 59.1737 -2.33219 63.4441 1.01953 66.7958C4.37125 70.1475 8.64161 72.4301 13.2906 73.3548C17.9396 74.2796 22.7584 73.8049 27.1376 71.991C31.5168 70.1771 35.2598 67.1053 37.8933 63.1641C40.5267 59.2229 41.9323 54.5892 41.9323 49.8492C41.9323 43.493 39.4073 37.3971 34.9127 32.9026C30.4182 28.4081 24.3224 25.8831 17.9661 25.8831Z" fill="#3B355B"/>
<path d="M27.8807 55.6398C27.8521 54.725 27.7251 53.8159 27.5021 52.9282C27.1715 51.6245 26.5386 50.4169 25.6546 49.4031L25.4397 49.1524C25.3635 49.0706 25.3021 48.9836 25.2253 48.9068C24.3516 48.0047 23.3352 47.2528 22.217 46.6812L21.6338 46.3999C21.6691 46.3999 21.6952 46.3436 21.7259 46.318C22.6865 45.6363 23.4165 44.6779 23.8184 43.5706C23.8184 43.5706 23.9688 43.0641 24.0282 42.8543C24.3906 41.6829 24.3852 40.4287 24.0127 39.2605C23.6403 38.0923 22.9188 37.0663 21.9453 36.3209C20.8581 35.415 19.4964 34.9038 18.0817 34.8704C16.667 34.837 15.2826 35.2833 14.1539 36.1367C13.2196 36.8238 12.508 37.7703 12.1073 38.8586C11.8991 39.348 11.763 39.865 11.7032 40.3935V40.4343C11.6722 40.706 11.6636 40.9798 11.6776 41.253C11.6785 41.4651 11.6921 41.6769 11.7186 41.8874C11.716 41.9146 11.716 41.942 11.7186 41.9692C11.7738 42.4936 11.894 43.0092 12.0762 43.5041C12.2092 43.8419 12.372 44.1673 12.5627 44.4762C12.9577 45.1793 13.4985 45.7899 14.1488 46.2669C14.1974 46.314 14.2486 46.3585 14.3022 46.3999L13.7139 46.6812C10.066 48.5743 8.14739 51.5621 8.04457 55.6858C8.00361 57.4152 8.04457 59.1445 8.04457 60.8788C8.04457 61.6514 8.36689 61.989 9.13432 61.989H26.8114C27.5789 61.989 27.9012 61.6514 27.9012 60.8788C27.9114 59.1291 27.9421 57.3845 27.8807 55.6398Z" fill="#3B355B"/>
</g>
<g clip-path="url(#clip6_19538_4286)">
<path d="M88.9056 53.3643C93.3297 53.3644 97.6544 54.6762 101.333 57.1341C105.011 59.592 107.878 63.0855 109.571 67.1727C111.264 71.26 111.707 75.7576 110.844 80.0966C109.981 84.4356 107.851 88.4213 104.722 91.5496C102.645 93.6267 100.18 95.2743 97.4657 96.3985C94.7518 97.5226 91.8431 98.1011 88.9056 98.1011C85.9682 98.1011 83.0595 97.5226 80.3456 96.3985C77.6318 95.2743 75.1659 93.6267 73.0888 91.5496C71.0117 89.4725 69.3641 87.0066 68.24 84.2928C67.1158 81.5789 66.5373 78.6702 66.5373 75.7328C66.5373 72.7953 67.1158 69.8866 68.24 67.1728C69.3641 64.4589 71.0117 61.993 73.0888 59.9159C75.1611 57.8323 77.626 56.1804 80.341 55.0558C83.0559 53.9312 85.967 53.3563 88.9056 53.3643ZM88.9056 51.7666C84.1656 51.7666 79.5319 53.1722 75.5907 55.8056C71.6495 58.4391 68.5777 62.1821 66.7638 66.5613C64.9498 70.9405 64.4752 75.7593 65.4 80.4083C66.3247 85.0573 68.6073 89.3276 71.959 92.6794C75.3107 96.0311 79.5811 98.3136 84.23 99.2384C88.879 100.163 93.6978 99.6885 98.077 97.8746C102.456 96.0606 106.199 92.9888 108.833 89.0476C111.466 85.1064 112.872 80.4728 112.872 75.7327C112.872 69.3765 110.347 63.2807 105.852 58.7861C101.358 54.2916 95.2618 51.7666 88.9056 51.7666Z" fill="#3B355B"/>
<path d="M101.958 68.5876C101.779 67.6843 101.303 66.8669 100.606 66.2655C99.9088 65.664 99.0305 65.3129 98.1107 65.2682L98.1109 65.2676H98.0897C97.9691 65.2624 97.8477 65.2618 97.7254 65.2674L89.7675 65.2658V65.2654L88.9061 65.2656L88.0446 65.2654V65.2658L80.0866 65.2674C79.9643 65.2618 79.8429 65.2623 79.7223 65.2676H79.7012L79.7013 65.2682C78.7815 65.3129 77.9032 65.6639 77.206 66.2654C76.5088 66.8669 76.0328 67.6843 75.8537 68.5876L73.3404 81.274C73.1277 82.3473 73.3502 83.4612 73.9588 84.3705C74.5674 85.2798 75.5123 85.9102 76.5857 86.1228C77.659 86.3355 78.7729 86.113 79.6822 85.5044C80.5915 84.8958 81.2219 83.9509 81.4345 82.8775L82.0532 79.7541C82.1087 79.4742 82.2595 79.2222 82.48 79.0411C82.7005 78.86 82.977 78.761 83.2623 78.761H94.5497C94.8351 78.761 95.1115 78.86 95.332 79.0411C95.5525 79.2222 95.7034 79.4742 95.7588 79.7541L96.3775 82.8775C96.5907 83.9504 97.2212 84.8946 98.1304 85.5027C99.0396 86.1108 100.153 86.333 101.226 86.1205C102.299 85.9079 103.243 85.278 103.852 84.3691C104.461 83.4603 104.684 82.347 104.472 81.274L101.958 68.5876ZM83.259 71.9671H81.3795V73.8466C81.3795 74.0752 81.2887 74.2943 81.1271 74.4559C80.9656 74.6175 80.7464 74.7083 80.5179 74.7083C80.2894 74.7083 80.0702 74.6175 79.9086 74.4559C79.747 74.2943 79.6562 74.0752 79.6562 73.8466V71.9671H77.7766C77.5481 71.9671 77.3289 71.8763 77.1674 71.7147C77.0058 71.5532 76.915 71.334 76.915 71.1055C76.915 70.877 77.0058 70.6578 77.1674 70.4962C77.3289 70.3346 77.5481 70.2438 77.7766 70.2438H79.6562V68.3642C79.6562 68.1357 79.747 67.9165 79.9086 67.755C80.0702 67.5934 80.2894 67.5026 80.5179 67.5026C80.7464 67.5026 80.9656 67.5934 81.1271 67.755C81.2887 67.9165 81.3795 68.1357 81.3795 68.3642V70.2438H83.259C83.4876 70.2438 83.7067 70.3346 83.8683 70.4962C84.0299 70.6578 84.1207 70.8769 84.1207 71.1055C84.1207 71.334 84.0299 71.5531 83.8683 71.7147C83.7067 71.8763 83.4876 71.9671 83.259 71.9671L83.259 71.9671ZM85.1782 77.6392C84.8914 77.6392 84.611 77.5541 84.3725 77.3947C84.134 77.2354 83.9481 77.0088 83.8383 76.7438C83.7285 76.4788 83.6998 76.1872 83.7558 75.9059C83.8117 75.6245 83.9499 75.3661 84.1527 75.1633C84.3555 74.9605 84.614 74.8223 84.8953 74.7664C85.1766 74.7104 85.4682 74.7391 85.7332 74.8489C85.9983 74.9587 86.2248 75.1445 86.3841 75.383C86.5435 75.6215 86.6286 75.9019 86.6286 76.1888C86.6286 76.3793 86.5911 76.5679 86.5182 76.7438C86.4453 76.9198 86.3385 77.0797 86.2038 77.2144C86.0691 77.3491 85.9092 77.4559 85.7332 77.5288C85.5573 77.6017 85.3687 77.6392 85.1782 77.6392V77.6392ZM93.463 77.6392C93.1761 77.6392 92.8957 77.5541 92.6572 77.3948C92.4187 77.2354 92.2328 77.0089 92.123 76.7439C92.0132 76.4789 91.9845 76.1873 92.0405 75.9059C92.0964 75.6246 92.2346 75.3662 92.4374 75.1633C92.6402 74.9605 92.8986 74.8223 93.18 74.7664C93.4613 74.7104 93.7529 74.7391 94.0179 74.8489C94.2829 74.9587 94.5095 75.1445 94.6688 75.383C94.8282 75.6215 94.9133 75.9019 94.9133 76.1888C94.9133 76.5734 94.7605 76.9423 94.4885 77.2143C94.2165 77.4863 93.8476 77.6391 93.463 77.6392L93.463 77.6392ZM95.0602 72.1215C94.8287 72.1215 94.6025 72.0529 94.4101 71.9243C94.2177 71.7957 94.0677 71.613 93.9791 71.3991C93.8905 71.1853 93.8674 70.9501 93.9125 70.7231C93.9577 70.4961 94.0691 70.2876 94.2328 70.1239C94.3964 69.9603 94.6049 69.8488 94.8319 69.8037C95.0589 69.7585 95.2942 69.7817 95.508 69.8703C95.7218 69.9588 95.9045 70.1088 96.0331 70.3013C96.1617 70.4937 96.2303 70.7199 96.2303 70.9514C96.2303 71.105 96.2001 71.2572 96.1413 71.3991C96.0825 71.5411 95.9963 71.6701 95.8876 71.7788C95.7789 71.8874 95.65 71.9736 95.508 72.0324C95.366 72.0912 95.2139 72.1215 95.0602 72.1215L95.0602 72.1215ZM97.5342 74.5955C97.3028 74.5955 97.0765 74.5269 96.8841 74.3983C96.6917 74.2697 96.5417 74.087 96.4531 73.8732C96.3646 73.6593 96.3414 73.4241 96.3865 73.1971C96.4317 72.9701 96.5431 72.7616 96.7068 72.5979C96.8704 72.4343 97.0789 72.3228 97.3059 72.2777C97.5329 72.2325 97.7682 72.2557 97.982 72.3443C98.1958 72.4329 98.3785 72.5828 98.5071 72.7753C98.6357 72.9677 98.7043 73.1939 98.7043 73.4254C98.7043 73.579 98.6741 73.7312 98.6153 73.8732C98.5565 74.0151 98.4703 74.1441 98.3616 74.2528C98.253 74.3614 98.124 74.4476 97.982 74.5064C97.84 74.5652 97.6879 74.5955 97.5342 74.5955L97.5342 74.5955ZM97.5342 69.6475C97.3028 69.6475 97.0765 69.5789 96.8841 69.4503C96.6917 69.3217 96.5417 69.139 96.4531 68.9251C96.3646 68.7113 96.3414 68.4761 96.3865 68.2491C96.4317 68.0221 96.5431 67.8136 96.7068 67.6499C96.8704 67.4863 97.0789 67.3748 97.3059 67.3297C97.5329 67.2845 97.7682 67.3077 97.982 67.3963C98.1958 67.4848 98.3785 67.6348 98.5071 67.8273C98.6357 68.0197 98.7043 68.2459 98.7043 68.4773C98.7043 68.631 98.6741 68.7832 98.6153 68.9251C98.5565 69.0671 98.4703 69.1961 98.3616 69.3048C98.253 69.4134 98.124 69.4996 97.982 69.5584C97.84 69.6172 97.6879 69.6475 97.5342 69.6475L97.5342 69.6475ZM100.008 72.1215C99.7768 72.1215 99.5505 72.0529 99.3581 71.9243C99.1657 71.7957 99.0157 71.613 98.9271 71.3991C98.8386 71.1853 98.8154 70.9501 98.8605 70.7231C98.9057 70.4961 99.0171 70.2876 99.1808 70.1239C99.3444 69.9603 99.5529 69.8488 99.7799 69.8037C100.007 69.7585 100.242 69.7817 100.456 69.8703C100.67 69.9588 100.853 70.1088 100.981 70.3013C101.11 70.4937 101.178 70.7199 101.178 70.9514C101.178 71.105 101.148 71.2572 101.089 71.3991C101.03 71.5411 100.944 71.6701 100.836 71.7788C100.727 71.8874 100.598 71.9736 100.456 72.0324C100.314 72.0912 100.162 72.1215 100.008 72.1215L100.008 72.1215Z" fill="#3B355B"/>
</g>
<g clip-path="url(#clip7_19538_4286)">
<path d="M102.894 105.131C107.318 105.131 111.643 106.443 115.322 108.901C119 111.359 121.867 114.853 123.56 118.94C125.253 123.027 125.696 127.525 124.833 131.864C123.97 136.203 121.839 140.188 118.711 143.317C114.516 147.512 108.827 149.868 102.894 149.868C96.9619 149.868 91.2724 147.512 87.0775 143.317C82.8826 139.122 80.526 133.432 80.526 127.5C80.526 121.567 82.8826 115.878 87.0775 111.683C89.1498 109.599 91.6147 107.947 94.3297 106.823C97.0446 105.698 99.9557 105.123 102.894 105.131ZM102.894 103.534C98.1543 103.534 93.5207 104.939 89.5795 107.573C85.6383 110.206 82.5665 113.949 80.7525 118.328C78.9386 122.708 78.464 127.526 79.3887 132.175C80.3135 136.824 82.596 141.095 85.9478 144.446C89.2995 147.798 93.5698 150.081 98.2188 151.005C102.868 151.93 107.687 151.456 112.066 149.642C116.445 147.828 120.188 144.756 122.821 140.815C125.455 136.873 126.86 132.24 126.86 127.5C126.86 121.144 124.335 115.048 119.841 110.553C115.346 106.059 109.251 103.534 102.894 103.534Z" fill="#3B355B"/>
<path d="M111.287 115.39C111.192 115.007 111.082 114.627 110.95 114.138C110.831 114.348 110.76 114.45 110.713 114.561C109.73 116.869 108.75 119.178 107.771 121.488C106.42 124.67 105.069 127.852 103.718 131.035C103.362 131.878 102.755 132.399 101.851 132.507C100.016 132.728 98.7633 130.957 99.5076 129.2C101.799 123.795 104.094 118.392 106.392 112.992C106.47 112.807 106.55 112.621 106.638 112.415C106.528 112.403 106.491 112.387 106.468 112.398C106.339 112.461 106.209 112.524 106.085 112.598C103.929 113.877 101.638 114.741 99.1139 114.892C98.6956 114.917 98.5617 115.172 98.4946 115.553C97.9746 118.512 97.4946 121.481 96.8954 124.424C95.9539 129.054 94.4804 133.527 92.6721 137.888C92.6111 138.007 92.5842 138.14 92.5944 138.273C92.6045 138.406 92.6513 138.534 92.7295 138.642C94.6044 141.614 98.2794 143.176 101.689 142.414C101.797 142.382 101.897 142.328 101.983 142.256C102.069 142.183 102.14 142.094 102.191 141.994C103.954 137.965 105.966 134.065 108.422 130.419C110.278 127.664 112.276 125.005 114.232 122.318C114.528 121.912 114.5 121.625 114.198 121.257C112.799 119.545 111.804 117.54 111.287 115.39Z" fill="#3B355B"/>
<path d="M96.3159 120.49C94.8829 123.866 93.4496 127.242 92.0161 130.618C91.4785 131.865 91.2602 133.226 91.381 134.578C91.4416 135.284 91.6202 135.979 91.7464 136.678C91.8064 136.677 91.8671 136.675 91.9271 136.673C94.0954 131.351 95.6304 125.792 96.5005 120.111C96.4388 120.237 96.3711 120.361 96.3159 120.49Z" fill="#3B355B"/>
<path d="M103.758 141.714C103.818 141.691 103.876 141.664 103.932 141.634C105.733 140.733 107.15 139.215 107.926 137.357C108.78 135.361 109.629 133.362 110.473 131.361C111.101 129.882 111.729 128.402 112.358 126.923C108.85 131.482 105.907 136.449 103.593 141.716C103.648 141.721 103.703 141.72 103.758 141.714Z" fill="#3B355B"/>
<path d="M106.769 118.01C106.118 117.725 105.527 117.988 105.198 118.742C104.609 120.095 104.029 121.453 103.461 122.815C103.394 122.957 103.358 123.111 103.352 123.268C103.347 123.425 103.373 123.581 103.429 123.728C103.485 123.874 103.57 124.008 103.679 124.121C103.787 124.234 103.918 124.324 104.062 124.386C104.203 124.444 104.354 124.473 104.507 124.472C104.659 124.471 104.81 124.439 104.95 124.38C105.091 124.32 105.218 124.233 105.325 124.124C105.431 124.015 105.515 123.886 105.572 123.745C105.879 123.056 106.164 122.358 106.459 121.664C106.457 121.663 106.456 121.663 106.454 121.662C106.737 120.998 107.026 120.336 107.299 119.668C107.614 118.897 107.416 118.293 106.769 118.01Z" fill="#3B355B"/>
<path d="M102.49 125.099C101.848 126.608 101.209 128.118 100.572 129.628C100.254 130.384 100.469 131.002 101.127 131.279C101.78 131.555 102.369 131.271 102.692 130.517C103.332 129.025 103.968 127.531 104.602 126.036C104.65 125.906 104.691 125.773 104.726 125.638C103.645 125.545 103.612 125.531 102.661 124.769C102.591 124.903 102.532 124.997 102.49 125.099Z" fill="#3B355B"/>
<path d="M108.142 117.618C108.486 116.808 108.808 116.051 109.137 115.276C108.435 114.975 107.766 114.689 107.073 114.394C106.74 115.177 106.419 115.934 106.075 116.745C106.916 116.711 107.572 117.028 108.142 117.618Z" fill="#3B355B"/>
</g>
<g clip-path="url(#clip8_19538_4286)">
<path d="M40.9735 131.014C45.3975 131.014 49.7222 132.326 53.4007 134.784C57.0792 137.242 59.9462 140.736 61.6392 144.823C63.3322 148.91 63.7752 153.408 62.9121 157.747C62.049 162.086 59.9186 166.071 56.7903 169.2C52.5947 173.391 46.9063 175.745 40.9757 175.744C35.0452 175.742 29.3579 173.386 25.1644 169.192C20.9708 164.998 18.6143 159.311 18.6128 153.381C18.6113 147.45 20.9651 141.762 25.1566 137.566C27.2289 135.482 29.6938 133.831 32.4088 132.706C35.1238 131.581 38.0348 131.006 40.9735 131.014ZM40.9735 129.417C36.2334 129.417 31.5998 130.822 27.6586 133.456C23.7174 136.089 20.6456 139.832 18.8316 144.211C17.0177 148.591 16.5431 153.409 17.4678 158.058C18.3926 162.707 20.6751 166.978 24.0269 170.329C27.3786 173.681 31.6489 175.964 36.2979 176.889C40.9469 177.813 45.7657 177.339 50.1449 175.525C54.5242 173.711 58.2672 170.639 60.9006 166.698C63.534 162.757 64.9396 158.123 64.9396 153.383C64.9396 147.027 62.4146 140.931 57.9201 136.436C53.4256 131.942 47.3297 129.417 40.9735 129.417Z" fill="#3B355B"/>
<path d="M50.7797 145.167C50.7547 145.155 50.729 145.145 50.7027 145.135L50.7031 145.134C50.7031 145.134 50.6938 145.132 50.679 145.127C50.6735 145.126 50.668 145.124 50.6625 145.122C50.6502 145.119 50.6343 145.114 50.6164 145.109C50.5919 145.101 50.5615 145.092 50.5267 145.082C49.8657 144.887 47.3768 144.166 44.064 143.383C41.0861 142.679 40.0156 144.068 38.071 146.013C36.2904 147.793 28.5452 156.174 27.0466 157.766C26.9098 157.911 26.8337 158.104 26.834 158.303V161.19C26.834 161.366 26.8929 161.536 27.0014 161.675C27.1099 161.813 27.2616 161.911 27.4323 161.953L34.6281 163.714C34.7454 163.743 34.8677 163.744 34.9855 163.718C35.1034 163.692 35.2136 163.639 35.3076 163.563L41.426 158.8L43.9144 156.795L45.2885 155.688L44.038 157.2L42.5235 159.032L46.6831 160.183L46.6836 160.182C46.7523 160.203 46.8216 160.223 46.8923 160.239C49.504 160.833 52.3952 157.91 53.3498 153.712C54.2504 149.75 53.1052 146.07 50.7797 145.167ZM34.5387 162.626C34.5387 162.693 34.5234 162.759 34.4941 162.82C34.4647 162.88 34.4219 162.933 34.3691 162.975C34.3162 163.016 34.2547 163.045 34.189 163.059C34.1233 163.073 34.0553 163.072 33.99 163.056L27.6385 161.502C27.5421 161.478 27.4564 161.423 27.3951 161.345C27.3338 161.267 27.3005 161.171 27.3005 161.071V159.173C27.3005 159.105 27.3158 159.039 27.3452 158.979C27.3746 158.918 27.4173 158.865 27.4702 158.824C27.523 158.782 27.5846 158.753 27.6503 158.739C27.716 158.725 27.784 158.726 27.8493 158.742L34.2008 160.296C34.2972 160.32 34.3829 160.375 34.4441 160.453C34.5054 160.531 34.5387 160.628 34.5387 160.727V162.626ZM43.84 149.044L41.7092 151.282C41.6502 151.344 41.5758 151.389 41.4937 151.413C41.4116 151.437 41.3246 151.439 41.2414 151.419L35.9919 150.135C35.909 150.115 35.8329 150.073 35.7713 150.014C35.7096 149.955 35.6646 149.881 35.6406 149.799C35.6167 149.717 35.6148 149.63 35.635 149.548C35.6552 149.465 35.6968 149.389 35.7557 149.327L37.8859 147.096C37.9449 147.034 38.019 146.989 38.101 146.965C38.1829 146.941 38.2697 146.939 38.3526 146.959L43.6028 148.236C43.6857 148.256 43.7618 148.298 43.8235 148.357C43.8853 148.416 43.9304 148.49 43.9545 148.572C43.9785 148.653 43.9806 148.74 43.9605 148.823C43.9404 148.906 43.8989 148.982 43.84 149.044L43.84 149.044ZM52.1718 153.555C51.5833 156.144 49.801 157.945 48.191 157.579C48.0879 157.556 47.987 157.523 47.8892 157.483C46.4801 156.903 45.7908 154.651 46.3413 152.23C46.9298 149.642 48.7121 147.84 50.3221 148.206C50.5896 148.268 50.841 148.386 51.0598 148.552C52.1687 149.379 52.662 151.399 52.1718 153.555H52.1718Z" fill="#3B355B"/>
</g>
</g>
<defs>
<clipPath id="clip0_19538_4286">
<rect width="47.9323" height="47.9323" fill="white" transform="translate(64.9399 155.301)"/>
</clipPath>
<clipPath id="clip1_19538_4286">
<rect width="47.9323" height="47.9323" fill="white" transform="translate(17.0073 77.6501)"/>
</clipPath>
<clipPath id="clip2_19538_4286">
<rect width="47.9323" height="47.9323" fill="white" transform="translate(41.9321)"/>
</clipPath>
<clipPath id="clip3_19538_4286">
<rect width="47.9323" height="47.9323" fill="white" transform="translate(41.9321 207.068)"/>
</clipPath>
<clipPath id="clip4_19538_4286">
<rect width="47.9323" height="47.9323" fill="white" transform="translate(-6 181.184)"/>
</clipPath>
<clipPath id="clip5_19538_4286">
<rect width="47.9323" height="47.9323" fill="white" transform="translate(-6 25.8833)"/>
</clipPath>
<clipPath id="clip6_19538_4286">
<rect width="47.9323" height="47.9323" fill="white" transform="translate(64.9399 51.7668)"/>
</clipPath>
<clipPath id="clip7_19538_4286">
<rect width="47.9323" height="47.9323" fill="white" transform="translate(78.9282 103.534)"/>
</clipPath>
<clipPath id="clip8_19538_4286">
<rect width="47.9323" height="47.9323" fill="white" transform="translate(17.0073 129.417)"/>
</clipPath>
</defs>
</svg>
