<svg width="127" height="255" viewBox="0 0 127 255" fill="none" xmlns="http://www.w3.org/2000/svg">
<g opacity="0.1" clip-path="url(#clip0_19538_3095)">
<path fill-rule="evenodd" clip-rule="evenodd" d="M-0.483887 11.355C-64.7181 11.355 -116.721 63.3931 -116.721 127.5C-116.721 191.607 -64.7181 243.645 -0.483887 243.645C63.7503 243.645 115.753 191.607 115.753 127.5C115.753 63.3931 63.7503 11.355 -0.483887 11.355ZM-128 127.5C-128 57.0454 -70.8709 0 -0.483887 0C69.9032 0 127.032 57.0454 127.032 127.5C127.032 197.955 69.9032 255 -0.483887 255C-70.8709 255 -128 197.955 -128 127.5Z" fill="#3B355B"/>
<path d="M90.3433 107.915C89.8962 109.297 89.1744 110.574 88.2213 111.669C87.2682 112.765 86.1034 113.656 84.7971 114.29C81.3415 116.329 77.6481 117.935 73.8002 119.072C69.4118 120.541 64.9418 121.754 60.4127 122.705H59.9983L60.5083 122.323C61.7434 121.525 62.8234 120.51 63.6958 119.327C64.3782 118.44 64.7482 117.353 64.7482 116.235C64.7482 115.116 64.3782 114.029 63.6958 113.143C62.7236 111.847 61.4981 110.763 60.0939 109.955C57.3933 108.241 54.4781 106.89 51.4239 105.939C45.8671 104.143 40.1596 102.853 34.3708 102.082C26.0953 100.887 17.742 100.312 9.3808 100.361C3.80267 100.361 -1.77545 100.584 -7.35358 101.094C-14.1268 101.665 -20.8425 102.784 -27.4348 104.441C-31.8826 105.478 -36.1709 107.107 -40.1848 109.286C-41.7647 110.158 -43.1782 111.302 -44.3604 112.665C-45.3187 113.657 -45.8542 114.983 -45.8542 116.362C-45.8542 117.742 -45.3187 119.067 -44.3604 120.06C-42.9022 121.735 -41.0966 123.073 -39.0692 123.98C-37.0929 124.937 -35.0211 125.734 -32.9811 126.594C-32.835 126.631 -32.7024 126.708 -32.5986 126.817C-35.1804 126.562 -37.7304 126.371 -40.3123 126.052L-53.0623 124.331C-58.1942 123.534 -63.2942 122.514 -68.2986 121.144C-73.1347 119.982 -77.8516 118.371 -82.3873 116.33C-84.483 115.35 -86.4262 114.073 -88.1567 112.537C-88.8529 111.958 -89.4739 111.294 -90.0054 110.561C-90.7802 109.624 -91.2041 108.446 -91.2041 107.23C-91.2041 106.014 -90.7802 104.836 -90.0054 103.899C-88.75 102.26 -87.1646 100.903 -85.3517 99.9148C-82.0593 98.0174 -78.5627 96.499 -74.9286 95.3885C-69.3153 93.5496 -63.5724 92.1325 -57.7479 91.1491C-52.2973 90.2248 -46.8148 89.396 -41.3323 88.7266C-36.9654 88.1529 -32.5348 87.8341 -28.1361 87.4835C-16.5461 86.5855 -4.91798 86.2769 6.7033 86.5591C13.0783 86.5591 19.6446 87.0054 26.0833 87.3879C30.8964 87.6748 35.6458 88.1529 40.4908 88.6948C50.0816 89.6881 59.5852 91.3928 68.9233 93.7948C73.4831 94.9227 77.9155 96.5141 82.1514 98.5441C83.4785 99.2138 84.7663 99.9587 86.0083 100.775C88.1514 102.059 89.7073 104.129 90.3433 106.545V107.915Z" fill="#3B355B"/>
<path d="M-30.7812 187.093C-38.7818 186.551 -46.7187 185.786 -54.5918 184.734C-54.8468 182.981 -55.1018 181.26 -55.325 179.539C-55.9625 175.299 -56.5362 171.06 -57.2056 166.789C-57.6837 163.856 -58.1937 160.955 -58.7675 158.055C-59.0609 156.685 -59.4334 155.333 -59.8831 154.007C-60.1397 153.308 -60.4823 152.644 -60.9031 152.03C-61.161 151.576 -61.5553 151.215 -62.0302 150.997C-62.5051 150.78 -63.0364 150.718 -63.5487 150.819C-64.1252 150.922 -64.6621 151.182 -65.1007 151.57C-65.5393 151.958 -65.8625 152.459 -66.035 153.019C-66.7124 155.176 -67.0774 157.42 -67.1187 159.68C-67.5331 167.171 -67.8837 174.63 -68.2343 181.993C-68.2343 181.993 -68.2343 182.28 -68.2343 182.471L-76.9362 180.75C-77.0214 180.703 -77.0962 180.639 -77.1565 180.562C-77.2167 180.485 -77.261 180.398 -77.2868 180.304C-77.9562 177.435 -78.5937 174.534 -79.2312 171.634C-81.59 161.009 -83.9593 150.384 -86.3393 139.759C-87.5506 134.467 -88.8043 129.112 -90.1006 123.694V123.439C-88.5387 124.235 -86.9131 125.064 -85.3831 125.765C-81.1904 127.558 -76.8633 129.018 -72.4418 130.132C-65.9174 131.914 -59.2983 133.33 -52.6156 134.372C-47.5475 135.169 -42.4474 135.87 -37.3475 136.507C-33.2674 136.985 -29.1237 137.304 -25.0118 137.623C-18.2225 138.165 -11.4012 138.515 -4.57994 138.484C2.24131 138.452 8.45692 138.484 14.9594 138.165C21.4619 137.846 27.4226 137.368 33.6382 136.794C41.2563 136.093 48.8107 134.977 56.3332 133.607C64.5986 132.141 72.7319 130.009 80.6538 127.232C83.5453 126.232 86.3318 124.951 88.9732 123.407V123.725C84.8932 141.937 80.8238 160.127 76.7651 178.295C76.6057 179.029 76.4463 179.762 76.2551 180.495C76.2551 180.495 76.0638 180.909 75.9044 180.941L67.2026 182.662C67.2026 182.089 67.2026 181.579 67.2026 181.037C67.0113 176.51 66.9157 171.984 66.6288 167.426C66.4057 163.41 66.0232 159.394 65.6407 155.377C65.5003 154.484 65.2652 153.608 64.9394 152.764C64.6749 152.151 64.2251 151.638 63.6533 151.295C63.0815 150.952 62.4165 150.796 61.7519 150.851C61.4339 150.902 61.1292 151.015 60.8556 151.185C60.5819 151.354 60.3448 151.577 60.1582 151.839C59.2432 153.025 58.6602 154.433 58.4688 155.919C58.2776 156.844 57.8951 157.704 57.7357 158.629C57.0982 162.135 56.4926 165.609 55.9507 169.116C55.4088 172.622 54.8032 176.797 54.2613 180.654L53.6876 184.734C45.7826 185.786 37.7501 186.551 29.8451 187.093C29.83 186.881 29.83 186.668 29.8451 186.456C29.5582 180.59 29.3351 174.726 28.9844 168.892C28.7932 165.992 28.4426 163.123 28.0919 160.254C27.931 159.358 27.6745 158.482 27.3269 157.64C27.0287 156.916 26.5046 156.308 25.8326 155.906C25.1605 155.504 24.3766 155.33 23.5976 155.409C22.8808 155.518 22.2317 155.894 21.7807 156.461C20.8658 157.557 20.2313 158.859 19.9319 160.254C19.9319 160.7 19.9319 161.147 19.6769 161.561C19.4219 161.975 19.1032 163.282 18.9119 164.143C18.2426 167.777 17.6051 171.41 17.0313 175.044C16.3619 179.188 15.7882 183.332 15.1825 187.476C15.1825 187.89 14.8957 187.858 14.6088 187.858C7.18194 187.858 -0.276817 188.017 -7.70369 188.049C-10.3174 188.049 -12.9312 188.049 -15.5768 187.858C-15.9274 187.858 -16.0231 187.858 -16.0868 187.412C-17.2662 179.953 -18.4137 172.526 -19.6249 165.099C-19.7843 164.047 -20.2306 163.059 -20.4856 161.912C-20.7406 160.764 -20.7087 160.764 -20.8362 160.19C-21.0997 158.958 -21.6212 157.796 -22.3662 156.78C-22.6749 156.235 -23.1537 155.806 -23.7292 155.558C-24.3048 155.311 -24.9456 155.258 -25.5537 155.409C-26.2043 155.545 -26.8048 155.858 -27.2886 156.313C-27.7724 156.769 -28.1207 157.35 -28.2949 157.991C-29.1888 161.21 -29.6602 164.532 -29.6974 167.872C-30.0799 174.088 -30.3349 180.336 -30.6537 186.583C-30.6747 186.758 -30.7175 186.929 -30.7812 187.093Z" fill="#3B355B"/>
<path d="M2.3053 76.6468V78.8143H-1.3922C-1.3922 78.6549 -1.3922 78.5274 -1.3922 78.368V65.0124C-1.41249 64.7463 -1.37394 64.4791 -1.27926 64.2296C-1.18459 63.9801 -1.03613 63.7546 -0.844433 63.569C-0.652736 63.3834 -0.422508 63.2422 -0.170112 63.1557C0.082283 63.0691 0.35065 63.0392 0.615916 63.068C1.05256 63.096 1.46515 63.2778 1.78032 63.5813C2.09549 63.8848 2.2928 64.2902 2.33717 64.7255C2.35507 64.9057 2.35507 65.0872 2.33717 65.2674L24.6497 69.8574L2.3053 76.6468Z" fill="#3B355B"/>
</g>
<defs>
<clipPath id="clip0_19538_3095">
<rect width="255" height="255" fill="white" transform="translate(-128)"/>
</clipPath>
</defs>
</svg>
