<svg width="127" height="255" viewBox="0 0 127 255" fill="none" xmlns="http://www.w3.org/2000/svg">
<g opacity="0.1" clip-path="url(#clip0_19538_2423)">
<path fill-rule="evenodd" clip-rule="evenodd" d="M-0.483887 11.355C-64.7181 11.355 -116.721 63.3931 -116.721 127.5C-116.721 191.607 -64.7181 243.645 -0.483887 243.645C63.7503 243.645 115.753 191.607 115.753 127.5C115.753 63.3931 63.7503 11.355 -0.483887 11.355ZM-128 127.5C-128 57.0454 -70.8709 0 -0.483887 0C69.9032 0 127.032 57.0454 127.032 127.5C127.032 197.955 69.9032 255 -0.483887 255C-70.8709 255 -128 197.955 -128 127.5Z" fill="#3B355B"/>
<path d="M61.2102 69.6451C60.4678 69.5813 59.7213 69.5813 58.9789 69.6451C57.0062 69.8125 55.0362 69.2946 53.4008 68.1789C36.3477 57.947 19.2627 47.8107 2.20953 37.5788C1.48979 37.0233 0.614616 36.7063 -0.293922 36.6721C-1.20245 36.6378 -2.09903 36.8879 -2.85859 37.3876C-19.1467 47.1413 -35.4986 56.7995 -51.7548 66.617C-54.6913 68.8602 -58.328 69.9896 -62.0186 69.8045C-62.4871 69.7087 -62.9711 69.7196 -63.4348 69.8364C-63.8985 69.9531 -64.33 70.1726 -64.6973 70.4787C-65.0647 70.7848 -65.3584 71.1697 -65.5568 71.6047C-65.7553 72.0398 -65.8533 72.5139 -65.8436 72.992C-65.8436 74.9045 -64.3455 76.1795 -62.0505 76.1795H-56.0261V79.1439C-56.0261 113.888 -56.0261 148.621 -56.0261 183.343C-56.0959 184.04 -55.9537 184.741 -55.6181 185.355C-55.2825 185.97 -54.7692 186.468 -54.1455 186.786C-36.763 197.071 -19.4123 207.409 -2.09359 217.8C-1.63893 218.157 -1.07774 218.351 -0.49984 218.351C0.078064 218.351 0.639252 218.157 1.09391 217.8C18.4339 207.366 35.7952 196.996 53.1777 186.69C53.8077 186.386 54.3291 185.896 54.6712 185.286C55.0133 184.676 55.1596 183.975 55.0902 183.279C55.0902 151.532 55.0902 119.774 55.0902 88.0051V76.1476H61.3058C61.7578 76.2069 62.2173 76.1685 62.6532 76.0351C63.0891 75.9017 63.4913 75.6763 63.8327 75.3742C64.1741 75.0721 64.4467 74.7002 64.6321 74.2838C64.8176 73.8673 64.9115 73.416 64.9077 72.9601C64.901 72.4936 64.7977 72.0336 64.6044 71.609C64.4112 71.1844 64.1321 70.8045 63.7847 70.493C63.4374 70.1816 63.0293 69.9455 62.5862 69.7996C62.1431 69.6536 61.6746 69.601 61.2102 69.6451ZM-34.4148 63.7801C-23.5773 57.4051 -12.7398 50.807 -1.87046 44.432C-1.44658 44.2329 -0.984055 44.1298 -0.515778 44.1298C-0.0475006 44.1298 0.415024 44.2329 0.838905 44.432C14.4814 52.4645 28.092 60.6245 41.6708 68.7207C41.9577 68.8801 42.2127 69.1351 42.8183 69.5495H-43.9773L-34.4148 63.7801ZM-42.4792 82.9051H-24.9161C-2.92233 82.9051 19.0714 82.9051 41.0652 82.9051C42.8183 82.9051 44.2527 83.0645 45.1452 84.9132C45.4333 85.4285 45.5727 86.0136 45.5479 86.6034C45.523 87.1932 45.3348 87.7645 45.0043 88.2537C44.6738 88.7428 44.214 89.1306 43.676 89.3737C43.1381 89.6169 42.5432 89.7058 41.9577 89.6307H-0.595459C-14.493 89.6307 -28.3905 89.6307 -42.288 89.6307C-44.7105 89.6307 -46.113 88.6107 -46.3042 86.762C-46.4466 86.2357 -46.4516 85.6818 -46.3188 85.153C-46.186 84.6243 -45.9199 84.1385 -45.5457 83.742C-45.1716 83.3454 -44.702 83.0515 -44.1819 82.8883C-43.6618 82.725 -43.1084 82.6979 -42.5748 82.8095L-42.4792 82.9051ZM-6.52421 152.552C-5.77765 153.438 -4.83744 154.14 -3.77625 154.604C-2.71506 155.068 -1.56132 155.282 -0.404213 155.229C1.54998 155.309 3.46283 154.652 4.95609 153.389C6.44935 152.126 7.41431 150.349 7.66016 148.408H23.5977C21.2708 162.529 11.6127 169.254 -0.372337 169.254C-3.65399 169.363 -6.92186 168.781 -9.96399 167.545C-13.0061 166.31 -15.7546 164.449 -18.0311 162.083C-24.6611 155.325 -24.4061 146.336 -24.4061 136.583C-24.4061 126.829 -24.6611 117.999 -18.0311 111.242C-15.7671 108.884 -13.0352 107.025 -10.0107 105.784C-6.98618 104.544 -3.73579 103.949 -0.467972 104.038C11.517 104.038 21.1752 110.796 23.502 124.916H7.56454C7.31867 122.976 6.35372 121.199 4.86047 119.936C3.3672 118.673 1.45435 118.016 -0.49984 118.095C-1.65787 118.035 -2.81398 118.246 -3.87634 118.71C-4.93871 119.175 -5.87807 119.881 -6.61983 120.773C-8.02233 122.653 -9.01046 124.916 -9.01046 136.71C-9.01046 148.504 -7.92671 150.639 -6.52421 152.552ZM43.5833 179.837C39.7902 182.164 35.9652 184.395 32.1402 186.658L2.40079 204.413C1.47641 204.954 0.456413 205.337 -0.49984 205.783C-1.39233 205.369 -2.18922 205.114 -2.85859 204.731L-44.0411 180.092C-46.2405 178.785 -46.9098 176.904 -45.8898 175.119C-44.8698 173.334 -42.8617 172.92 -40.5667 174.291C-27.9442 181.813 -15.3323 189.357 -2.73109 196.922C-2.09658 197.398 -1.32484 197.655 -0.531708 197.655C0.261421 197.655 1.03316 197.398 1.66766 196.922C13.9714 189.431 26.3708 182.1 38.7383 174.609L40.1727 173.781C40.5559 173.551 40.981 173.399 41.4233 173.334C41.8656 173.27 42.3163 173.294 42.7493 173.404C43.1824 173.515 43.5891 173.711 43.946 173.98C44.3029 174.249 44.6028 174.586 44.8284 174.972C45.0541 175.358 45.2009 175.785 45.2604 176.228C45.3199 176.671 45.2909 177.121 45.1751 177.553C45.0592 177.985 44.8589 178.389 44.5857 178.743C44.3125 179.097 43.9717 179.393 43.5833 179.614V179.837Z" fill="#3B355B"/>
</g>
<defs>
<clipPath id="clip0_19538_2423">
<rect width="255" height="255" fill="white" transform="translate(-128)"/>
</clipPath>
</defs>
</svg>
