<svg width="20" height="20" viewBox="0 0 20 20" fill="none" xmlns="http://www.w3.org/2000/svg">
<g id="discord 1">
<path id="Vector" d="M12.9417 9.5C12.9417 10.11 12.4789 10.61 11.8926 10.61C11.3166 10.61 10.8434 10.11 10.8434 9.5C10.8434 8.89 11.3063 8.39 11.8926 8.39C12.4789 8.39 12.9417 8.89 12.9417 9.5ZM8.13829 8.39C7.552 8.39 7.08914 8.89 7.08914 9.5C7.08914 10.11 7.56229 10.61 8.13829 10.61C8.72457 10.61 9.18743 10.11 9.18743 9.5C9.19771 8.89 8.72457 8.39 8.13829 8.39ZM19 2.06V20C16.4087 17.7737 17.2374 18.5106 14.2274 15.79L14.7726 17.64H3.10857C1.94629 17.64 1 16.72 1 15.58V2.06C1 0.92 1.94629 0 3.10857 0H16.8914C18.0537 0 19 0.92 19 2.06ZM16.0686 11.54C16.0686 8.32 14.5874 5.71 14.5874 5.71C13.1063 4.63 11.6971 4.66 11.6971 4.66L11.5531 4.82C13.3017 5.34 14.1143 6.09 14.1143 6.09C11.671 4.78809 8.80091 4.78785 6.43086 5.8C6.05029 5.97 5.824 6.09 5.824 6.09C5.824 6.09 6.67771 5.3 8.52914 4.78L8.42629 4.66C8.42629 4.66 7.01714 4.63 5.536 5.71C5.536 5.71 4.05486 8.32 4.05486 11.54C4.05486 11.54 4.91886 12.99 7.192 13.06C7.192 13.06 7.57257 12.61 7.88114 12.23C6.57486 11.85 6.08114 11.05 6.08114 11.05C6.23246 11.153 6.48196 11.2864 6.50286 11.3C8.23897 12.2452 10.7051 12.5549 12.9211 11.65C13.2811 11.52 13.6823 11.33 14.104 11.06C14.104 11.06 13.5897 11.88 12.2423 12.25C12.5509 12.63 12.9211 13.06 12.9211 13.06C15.1943 12.99 16.0686 11.54 16.0686 11.54Z" fill="#FAFAFA"/>
</g>
</svg>
