<svg width="35" height="35" viewBox="0 0 35 35" fill="none" xmlns="http://www.w3.org/2000/svg">
<path d="M26.2064 9.37027C26.1937 9.37046 26.1809 9.37115 26.1683 9.37233C26.064 9.3634 25.9592 9.3634 25.8549 9.37233C25.5779 9.39474 25.3015 9.32209 25.0714 9.16636C22.6759 7.72913 20.2761 6.3053 17.8807 4.86808C17.7795 4.79003 17.6566 4.7455 17.5291 4.74067C17.4014 4.73585 17.2754 4.77099 17.1688 4.84119C14.8808 6.2113 12.5838 7.56797 10.3004 8.94701C9.88652 9.25939 9.37669 9.41773 8.85865 9.39475C8.79285 9.38131 8.72488 9.38284 8.65975 9.39923C8.59463 9.41562 8.53402 9.44644 8.48243 9.48944C8.43083 9.53243 8.38956 9.58647 8.36169 9.64757C8.33381 9.70866 8.32003 9.77525 8.32138 9.84239V9.84254C8.32138 10.1112 8.5318 10.2902 8.8542 10.2902H9.70042V25.3433C9.69062 25.4412 9.71059 25.5396 9.75772 25.626C9.80485 25.7122 9.87696 25.7823 9.96457 25.8269C12.4062 27.2715 14.8435 28.7238 17.2762 30.1834C17.3361 30.2301 17.4091 30.2567 17.4851 30.2595H17.5151C17.591 30.2567 17.664 30.2301 17.7239 30.1834C20.1597 28.7177 22.5983 27.2612 25.0401 25.8134C25.1285 25.7707 25.2018 25.7019 25.2498 25.6163C25.2979 25.5305 25.3184 25.4322 25.3087 25.3344V10.2858H26.1818C26.2955 10.3005 26.4104 10.2709 26.5029 10.2032C26.5955 10.1355 26.6585 10.0348 26.6788 9.92202V9.76036C26.659 9.64991 26.6006 9.55008 26.5141 9.47864C26.4276 9.4072 26.3185 9.36879 26.2064 9.37027ZM12.736 8.54853C14.2584 7.653 15.7807 6.72621 17.3075 5.83072C17.3671 5.80276 17.4321 5.78827 17.4978 5.78827C17.5636 5.78827 17.6286 5.80276 17.6881 5.83072C19.6044 6.95901 21.5163 8.10525 23.4236 9.24251C23.464 9.26488 23.4998 9.30069 23.5849 9.35893H11.3929L12.736 8.54853ZM11.3813 11.2276C11.4494 11.2092 11.5209 11.2071 11.5899 11.2215L11.6033 11.235H23.3386C23.4633 11.2269 23.5881 11.2475 23.7036 11.2953C23.8054 11.3398 23.8876 11.4193 23.9357 11.5195C23.9836 11.6196 23.994 11.7336 23.965 11.8407C23.9359 11.948 23.8694 12.0411 23.7775 12.1032C23.6854 12.1655 23.5743 12.1926 23.464 12.1797H11.6302C11.2899 12.1797 11.0929 12.0364 11.066 11.7767C11.0371 11.6622 11.0538 11.5409 11.1127 11.4384C11.1715 11.336 11.2678 11.2604 11.3813 11.2276L11.3813 11.2276ZM23.7018 24.814C23.6986 24.8158 23.6955 24.8177 23.6923 24.8194V24.8508C23.1595 25.1776 22.6223 25.4911 22.0849 25.8089L17.9075 28.3029C17.7777 28.3791 17.6344 28.4327 17.5001 28.4954C17.3747 28.4372 17.2627 28.4013 17.1688 28.3477L11.3839 24.8866C11.075 24.703 10.9809 24.4389 11.1242 24.1882C11.2675 23.9374 11.5496 23.8792 11.872 24.0717C13.645 25.1284 15.4166 26.1881 17.1866 27.2507C17.2758 27.3175 17.3842 27.3537 17.4956 27.3537C17.607 27.3537 17.7154 27.3175 17.8045 27.2507C19.5328 26.1984 21.2745 25.1687 23.0118 24.1165L23.2133 24.0001C23.2667 23.968 23.3259 23.9468 23.3876 23.9376C23.4492 23.9283 23.5121 23.9315 23.5725 23.9465C23.6331 23.9617 23.6899 23.9885 23.74 24.0256C23.7901 24.0627 23.8323 24.1093 23.8644 24.1627C23.8965 24.2162 23.9177 24.2754 23.9269 24.3371C23.9362 24.3987 23.9331 24.4616 23.918 24.5221C23.9029 24.5825 23.876 24.6394 23.8389 24.6895C23.8018 24.7396 23.7552 24.7819 23.7018 24.814ZM17.518 23.3643C17.057 23.3795 16.5979 23.2978 16.1707 23.1243C15.7434 22.9507 15.3573 22.6892 15.0375 22.3568C14.6146 21.9165 14.3382 21.3562 14.2464 20.7526C14.1335 20.139 14.142 19.471 14.142 18.7749C14.142 17.4048 14.1062 16.1646 15.0375 15.2154C15.0668 15.1849 15.0973 15.1556 15.1276 15.1263C15.4426 14.8223 15.815 14.5842 16.2232 14.4256C16.6313 14.2672 17.0669 14.1917 17.5046 14.2035C18.4436 14.2035 19.2807 14.4992 19.8944 15.1046C20.3809 15.5846 20.727 16.2591 20.8716 17.1362H18.6328C18.598 16.8638 18.4623 16.6144 18.2526 16.4371C18.043 16.2597 17.7745 16.1673 17.5001 16.1781C17.3374 16.1695 17.175 16.1992 17.0258 16.2645C16.8765 16.3297 16.7446 16.4289 16.6404 16.5542C16.6284 16.5703 16.6165 16.5867 16.6048 16.6037C16.4308 16.8567 16.31 17.2225 16.3049 18.6941C16.3048 18.7268 16.3045 18.7591 16.3045 18.7929C16.3045 20.4495 16.4568 20.7494 16.6538 21.0181C16.7587 21.1426 16.8908 21.2412 17.0399 21.3064C17.1889 21.3716 17.351 21.4017 17.5135 21.3942C17.7881 21.4054 18.0567 21.3131 18.2665 21.1357C18.4763 20.9582 18.6117 20.7086 18.6463 20.436H20.885C20.8639 20.5643 20.8384 20.6882 20.8087 20.8075C20.3812 22.5376 19.0926 23.3643 17.518 23.3643Z" fill="white"/>
</svg>
