<svg width="20" height="20" viewBox="0 0 20 20" fill="none" xmlns="http://www.w3.org/2000/svg">
<g id="instagram 1">
<path id="Vector" d="M10.002 5.33089C7.44808 5.33089 5.38806 7.36592 5.38806 9.88889C5.38806 12.4119 7.44808 14.4469 10.002 14.4469C12.5559 14.4469 14.616 12.4119 14.616 9.88889C14.616 7.36592 12.5559 5.33089 10.002 5.33089ZM10.002 12.8522C8.35159 12.8522 7.00234 11.5233 7.00234 9.88889C7.00234 8.25452 8.34757 6.9256 10.002 6.9256C11.6564 6.9256 13.0017 8.25452 13.0017 9.88889C13.0017 11.5233 11.6524 12.8522 10.002 12.8522ZM15.8809 5.14445C15.8809 5.73552 15.399 6.20758 14.8047 6.20758C14.2064 6.20758 13.7285 5.73155 13.7285 5.14445C13.7285 4.55734 14.2104 4.08131 14.8047 4.08131C15.399 4.08131 15.8809 4.55734 15.8809 5.14445ZM18.9368 6.22345C18.8685 4.79932 18.5392 3.53784 17.4831 2.49851C16.431 1.45917 15.154 1.13388 13.7124 1.06248C12.2267 0.979174 7.77334 0.979174 6.28756 1.06248C4.84997 1.12992 3.57301 1.4552 2.5169 2.49454C1.46079 3.53387 1.13553 4.79536 1.06325 6.21948C0.978918 7.68725 0.978918 12.0866 1.06325 13.5543C1.13151 14.9785 1.46079 16.2399 2.5169 17.2793C3.57301 18.3186 4.84596 18.6439 6.28756 18.7153C7.77334 18.7986 12.2267 18.7986 13.7124 18.7153C15.154 18.6479 16.431 18.3226 17.4831 17.2793C18.5352 16.2399 18.8645 14.9785 18.9368 13.5543C19.0211 12.0866 19.0211 7.69121 18.9368 6.22345ZM17.0173 15.1292C16.7041 15.9067 16.0977 16.5057 15.3066 16.8191C14.122 17.2832 11.3111 17.1761 10.002 17.1761C8.69292 17.1761 5.87797 17.2793 4.69738 16.8191C3.91032 16.5097 3.30396 15.9107 2.98673 15.1292C2.5169 13.959 2.62532 11.1821 2.62532 9.88889C2.62532 8.59567 2.52091 5.81486 2.98673 4.64858C3.29994 3.87106 3.9063 3.27206 4.69738 2.95867C5.88199 2.49454 8.69292 2.60165 10.002 2.60165C11.3111 2.60165 14.126 2.49851 15.3066 2.95867C16.0937 3.26809 16.7001 3.8671 17.0173 4.64858C17.4871 5.81882 17.3787 8.59567 17.3787 9.88889C17.3787 11.1821 17.4871 13.9629 17.0173 15.1292Z" fill="#FAFAFA"/>
</g>
</svg>
