<svg width="30" height="30" viewBox="0 0 30 30" fill="none" xmlns="http://www.w3.org/2000/svg">
<path fill-rule="evenodd" clip-rule="evenodd" d="M28.5 9C29.3284 9 30 8.32843 30 7.5C30 6.67157 29.3284 6 28.5 6H1.5C0.671573 6 0 6.67157 0 7.5C0 8.32843 0.671573 9 1.5 9L28.5 9ZM28.5 24C29.3284 24 30 23.3284 30 22.5C30 21.6716 29.3284 21 28.5 21H1.5C0.671573 21 0 21.6716 0 22.5C0 23.3284 0.671573 24 1.5 24H28.5ZM30 14.5C30 15.3284 29.3284 16 28.5 16L9.5 16C8.67157 16 8 15.3284 8 14.5C8 13.6716 8.67157 13 9.5 13L28.5 13C29.3284 13 30 13.6716 30 14.5Z" fill="white"/>
</svg>
