<svg width="20" height="20" viewBox="0 0 20 20" fill="none" xmlns="http://www.w3.org/2000/svg">
<path d="M19.567 5.74594C19.6975 5.31625 19.567 5 18.9391 5H16.8616C16.3326 5 16.0892 5.27156 15.9587 5.57406C15.9587 5.57406 14.9005 8.08687 13.405 9.71625C12.9218 10.1872 12.6996 10.3384 12.4351 10.3384C12.3046 10.3384 12.1035 10.1872 12.1035 9.7575V5.74594C12.1035 5.23031 11.9554 5 11.518 5H8.25184C7.92029 5 7.72277 5.24063 7.72277 5.46406C7.72277 5.95219 8.47053 6.06563 8.54813 7.44062V10.4244C8.54813 11.0775 8.4282 11.1978 8.16366 11.1978C7.45823 11.1978 5.74403 8.67469 4.72821 5.78719C4.52363 5.22688 4.32259 5 3.78998 5H1.71249C1.11992 5 1 5.27156 1 5.57406C1 6.11031 1.70543 8.77438 4.28379 12.2944C6.00151 14.6972 8.42115 16 10.6221 16C11.9448 16 12.107 15.7113 12.107 15.2128C12.107 12.9166 11.9871 12.7 12.6502 12.7C12.9571 12.7 13.4862 12.8513 14.7207 14.0097C16.1315 15.3847 16.3643 16 17.1544 16H19.2319C19.8245 16 20.1243 15.7113 19.9514 15.1406C19.5564 13.9409 16.8863 11.4728 16.7664 11.3078C16.4595 10.9228 16.5477 10.7509 16.7664 10.4072C16.7699 10.4038 19.306 6.925 19.567 5.74594Z" fill="#FAFAFA"/>
</svg>
