<svg width="20" height="20" viewBox="0 0 20 20" fill="none" xmlns="http://www.w3.org/2000/svg">
<g id="youtube 1">
<path id="Vector" d="M19.603 4.65657C19.3845 3.69853 18.7406 2.944 17.9232 2.68795C16.4415 2.22266 10.5 2.22266 10.5 2.22266C10.5 2.22266 4.55856 2.22266 3.07682 2.68795C2.25936 2.94405 1.61554 3.69853 1.39702 4.65657C1 6.39308 1 10.0162 1 10.0162C1 10.0162 1 13.6392 1.39702 15.3757C1.61554 16.3338 2.25936 17.0569 3.07682 17.3129C4.55856 17.7782 10.5 17.7782 10.5 17.7782C10.5 17.7782 16.4414 17.7782 17.9232 17.3129C18.7406 17.0569 19.3845 16.3338 19.603 15.3757C20 13.6392 20 10.0162 20 10.0162C20 10.0162 20 6.39308 19.603 4.65657ZM8.5568 13.3056V6.72668L13.5227 10.0162L8.5568 13.3056Z" fill="#FAFAFA"/>
</g>
</svg>
